<?xml version="1.0" encoding="UTF-8"?>
<svg id="Ebene_1" data-name="Ebene 1" xmlns="http://www.w3.org/2000/svg" version="1.1" viewBox="0 0 841.89 595.28">
  <defs>
    <style>
      .cls-1 {
        fill: #000;
        stroke-width: 0px;
      }
    </style>
  </defs>
  <path class="cls-1" d="M325.53,355.31c.25-7.49.57-14.54.7-21.59.21-11.74-3.62-22.26-9.82-32.09-5.68-9-12.62-16.95-20-24.56-6.06-6.25-12.26-12.4-17.29-19.55-2.28-3.24-4.23-6.71-6.35-10.06-3.07-4.83-6.08-9.71-9.27-14.46-3.25-4.84-8.09-7.74-13.3-10.02-5.45-2.39-10.95-4.64-16.47-6.84-5.55-2.22-10.81-4.95-15.65-8.48-13.18-9.6-25.25-20.3-34.25-34.13-9.22-14.17-15.21-29.54-17.56-46.29-2.09-14.91-.94-29.54,4.68-43.57,9.93-24.83,28.51-39.49,54.45-44.81,13.92-2.85,27.93-1.99,41.65,1.52,17.5,4.48,31.47,14.49,42.7,28.5,1.45,1.81,2.95,3.57,4.32,5.44,6.76,9.26,16.26,12.82,27.29,12.87,6.05.02,12.11-.5,18.16-.71,18.97-.66,37.33,2.52,55.18,8.84,13.91,4.93,26.65,12.06,38.76,20.42,9.34,6.44,17.4,14.09,24.16,23.26,6.31,8.57,11.57,17.63,15.83,27.39,8.08,18.52,21,32.63,39.17,41.78,4.62,2.33,9.05,5.01,13.62,7.42,6.14,3.24,11.98,6.93,17.87,10.59,22.94,14.24,41.81,32.64,56.96,54.9,16.32,23.99,26.8,50.35,30.86,79.11,4.12,29.23,2.02,58.17-8.85,85.63-17.46,44.07-48.9,73.37-95.41,85.4-43.68,11.3-84.79,4.28-123.76-17.55-12.08-6.76-23.06-15.06-33.32-24.35-18.31-16.58-33.88-35.29-45.15-57.4-5.07-9.95-9.28-20.23-12.37-30.97-.82-2.86-1.68-5.71-2.59-8.54-3.91-12.22-4.92-24.81-4.95-37.1ZM650.11,389.81c-.35-24.64-5.08-48.39-14.43-71.21-8.8-21.48-21.01-40.73-37.64-57.02-8.96-8.77-18.91-16.2-30.54-21.18-12.54-5.36-24.82-5.03-36.96,1.32-9.93,5.19-17.73,12.58-23.67,22.04-3.34,5.31-6.75,10.59-10.32,15.74-5.25,7.58-11.62,14.14-18.91,19.78-20.19,15.63-43.35,22.67-68.6,23.41-12.15.35-24.21-.73-36.19-2.86-3.02-.54-6.15-.91-9.19-.76-17.12.87-31.86,16.35-32.46,34.22-.37,11.22.96,22.26,3.35,33.16,9.5,43.44,30.71,79.83,66.14,107.2,31.04,23.98,66.12,37.51,105.56,39.03,20.72.8,40.58-2.79,59.59-11.19,59.1-26.12,84.89-84.47,84.27-131.7ZM388.09,92.9c-14.12-.27-25.64,4.87-35.58,13.86-4.73,4.28-8.44,9.35-10.09,15.63-1.6,6.08-2.78,12.21-2.68,18.59.19,12.6-2.16,24.69-6.93,36.43-4.4,10.82-11.4,19.4-20.97,25.73-6.03,3.99-12.67,7.09-19.13,10.42-3.09,1.59-5.96,3.32-7.97,6.24-4.3,6.24-6.9,13.05-6.83,20.7.04,4.42.34,8.91,2.58,12.85,3.44,6.04,7.29,11.76,12.38,16.64,9.14,8.78,19.38,15.54,31.78,18.75,6.8,1.76,14.69-1.31,18.34-7.35,2.1-3.49,4.13-7.03,6.2-10.54,14.64-24.78,34.73-43.73,60.6-56.42,16.21-7.95,33.4-12.45,51.35-14.16,5.01-.48,9.83-1.75,13.82-4.93,3.99-3.18,7.39-6.99,9.71-11.58,2.58-5.09,4.39-10.45,3.07-16.24-2.98-13.04-8.62-24.84-18.15-34.33-16.93-16.87-37.06-28.63-59.67-36.24-7.25-2.44-14.62-4.18-21.83-4.03ZM241.4,40.89c-2.64,0-5.3-.16-7.93.05-2.74.22-5.48.66-8.17,1.24-24.38,5.24-41.85,19-51.41,42.21-5.77,14.02-6.83,28.66-4.54,43.55,3.1,20.09,11.68,37.74,24,53.77,5.54,7.21,12.19,13,19.87,17.72,5.74,3.53,11.87,5.85,18.73,5.59,12.58-.49,18.73-6.14,21.78-16.64,1.01-3.47,1.47-7.12,1.96-10.72,1.67-12.42,4.64-24.45,9.96-35.86,2.91-6.24,6.32-12.19,11.06-17.16,6.47-6.78,13.28-13.22,19.89-19.86,1.39-1.4,2.82-2.87,3.77-4.57,5.82-10.47,5.46-20.91-.82-31.02-3.1-4.98-7.21-9.15-11.93-12.7-7.25-5.47-14.79-10.43-23.7-12.77-7.37-1.94-14.84-3.33-22.53-2.82ZM404.08,320.05c1.03-.07,2.24-.2,3.45-.23,10.39-.32,20.64-1.67,30.67-4.43,13.87-3.81,26.68-9.69,37.67-19.22,5.61-4.87,10.51-10.34,15.21-16.06,5.02-6.12,8.98-12.81,11.78-20.18,4.06-10.65,5.89-21.43,1.8-32.58-4.73-12.89-12.98-21.37-27.2-23.41-9.66-1.39-19.12-.8-28.6.91-34.23,6.17-62.57,22.45-84.67,49.39-7.08,8.63-11.52,18.53-12.86,29.61-.8,6.68.15,13.25,4.71,18.64,5.29,6.26,11.76,10.99,19.56,13.63,9.17,3.11,18.67,4.11,28.49,3.92ZM336.04,152.13c-.39-4.2-.64-8.61-1.25-12.97-1.26-9.12-4.76-17.1-11.99-23.23-4.49-3.8-9.55-5.23-15.3-4.87-6.08.37-11.54,2.56-16.87,5.33-8.01,4.17-13.66,10.76-18.39,18.13-6.74,10.5-11.1,22-12.39,34.49-.5,4.81-.7,9.67-.66,14.5.05,6.95,2.61,12.81,8.14,17.31,5,4.07,10.68,5.85,17.05,6.14,6.74.3,13.1-1.1,19.36-3.4,9.72-3.56,17.63-9.48,23.25-18.17,6.48-10.02,8.37-21.37,9.06-33.26Z"/>
</svg>