<?xml version="1.0" encoding="UTF-8"?>
<svg id="Ebene_1" data-name="Ebene 1" xmlns="http://www.w3.org/2000/svg" version="1.1" viewBox="0 0 595.28 841.89">
  <defs>
    <style>
      .cls-1 {
        fill: #000;
        stroke-width: 0px;
      }
    </style>
  </defs>
  <path class="cls-1" d="M48.58,448.95c-.36-15.93,2.06-32.62,5.13-49.25,1.8-9.74,2.42-19.44-1.51-28.93-2.9-7.02-7.51-12.81-12.68-18.2-12.76-13.31-21.42-28.86-24.9-46.98-5.34-27.86,0-53.2,19.73-74.34,16.36-17.53,36.95-24.07,60.67-21.74,7.28.72,14.28,2.06,21.18,4.51,9.62,3.41,17.78,8.96,25.09,15.9,3.95,3.75,7.82,7.59,11.7,11.41,4.94,4.86,10.91,6.97,17.77,6.79,8.73-.23,17.36-1.23,25.81-3.53,14.59-3.98,29.42-6.27,44.57-6.48,6.16-.09,12.32-.8,18.47-.76,17.85.11,35.47,2.43,52.8,6.56,11.11,2.65,21.98,2.22,32.74-1.06,9.87-3.01,19.51-6.76,29.42-9.65,11.12-3.24,22.29-6.61,33.67-8.55,8.86-1.5,18.11-1.54,27.13-1.05,10.65.58,21.27,2.2,31.83,3.8,10.26,1.55,20.15,4.66,29.61,8.89,24.34,10.91,45.98,25.7,63.13,46.31,15.39,18.5,25.48,39.73,29.13,63.59,5.61,36.63-2.83,69.92-25.21,99.55-14.5,19.19-33.75,32.08-55.4,41.9-10.13,4.6-20.76,7.58-31.37,10.61-5.2,1.49-9.62,4.08-13.76,7.41-11.28,9.09-19.2,20.77-25.37,33.62-7.87,16.39-16.74,32.22-26.69,47.38-10.64,16.22-24.39,29.75-39.44,41.88-28.85,23.27-61.75,37.34-98.62,41.04-52.56,5.27-99.62-9.42-140.79-42.1-42.51-33.74-68.07-78.11-79.23-130.98-3.24-15.33-4.78-30.85-4.6-47.57ZM242.95,665.57c40.77.01,70.12-7.18,96.68-21.7,31.44-17.19,50.55-44.22,59.67-78.26,4.68-17.45,1-33.88-11.45-47.72-9.33-10.37-20.37-18.63-32.53-25.26-21.97-11.98-41.39-26.96-56.28-47.23-22.48-30.62-31.27-64.68-24.62-102.35,3.07-17.38,9.92-33.33,19.08-48.33,3.99-6.53,7.69-13.16,9-20.85,1.66-9.75-2.43-18.83-11.22-23.27-4.16-2.1-8.69-3.76-13.24-4.74-14.1-3.04-28.43-3.79-42.8-2.89-18.4,1.15-34.64,7.05-47.05,21.64-10.25,12.05-17.64,25.06-18.73,41.32-.84,12.61-4.26,24.71-10.81,35.66-10.3,17.25-24.45,29.51-44.75,33.46-3.02.59-6.04,1.15-9.08,1.62-10.89,1.68-19.7,6.87-26.58,15.46-4.71,5.87-8.2,12.4-10.97,19.35-5.43,13.61-8.11,27.83-9.22,42.39-1.95,25.49.67,50.47,9.39,74.55,11.3,31.2,28.7,58.64,52.7,81.67,37.22,35.72,81.51,54.7,122.81,55.49ZM428.74,229.02c-5.16.42-13.34.76-21.42,1.82-11.6,1.52-21.95,6.2-30.66,14.1-11.93,10.83-13.47,25.6-3.75,38.56,3.34,4.45,7.37,8.5,11.57,12.18,26.03,22.81,43.79,51.11,55.48,83.39,8.43,23.27,13.1,47.12,9.99,72.07-.62,5-.42,10.17-.04,15.21.72,9.48,7.08,17.72,15.02,20.08,7.06,2.1,14.17,2.47,21.45,1.11,26.62-4.97,49.4-17.51,67.24-37.44,25.01-27.93,35.59-61.31,30.98-98.67-3.98-32.21-18.74-59.31-42.84-80.98-31.21-28.07-68.4-40.74-113.04-41.43ZM445.46,434.61c.12-21.65-3.34-40.35-10.26-58.25-9.25-23.93-22.46-45.44-40.73-63.74-6.85-6.87-14.21-13.04-22.52-17.87-5.42-3.15-11.41-5.62-17.44-7.36-10.65-3.07-21.53-2.21-32.34-.29-9.73,1.73-17.68,6.53-23.7,14.24-7.54,9.65-13.19,20.38-16.74,32.14-6.2,20.54-5.12,41.32-1.06,61.96,4.22,21.48,14.41,40.19,29.04,56.39,5.7,6.31,11.29,13.01,18.03,18.05,14.9,11.14,31.27,19.63,49.81,23.35,12.98,2.61,25.84,3.72,38.64-.8,5.58-1.97,10.55-4.79,14.19-9.6,5.64-7.46,9.64-15.64,12.06-24.76,2.27-8.53,3.27-17.08,3.01-23.47ZM17.11,288.63c.22,17.23,5.82,34.74,16.99,50.44,3.4,4.79,7.47,8.87,12.64,11.77,12.83,7.2,19.34,4.3,26.06-6.32,5.43-8.57,10.88-17.15,15.88-25.98,6.33-11.19,14.58-20.67,23.93-29.41,8.35-7.79,16.27-16.05,24.29-24.19,1.51-1.53,2.81-3.34,3.86-5.22,4.81-8.58,2.56-18.92-4.48-25.9-16.28-16.13-35.84-22.77-58.52-19.82-23.4,3.04-40.82,15.03-51.9,35.91-6.07,11.44-8.66,23.78-8.75,38.72ZM163.65,312.46c.07-7.54-.32-14.03-2.77-20.22-4.16-10.49-14.79-15.2-25.38-11.37-7.05,2.55-13.61,5.97-19.38,10.78-15.74,13.11-26.08,29.25-29.49,49.85-2.81,16.95,9.96,31.77,26.86,29.51,8.83-1.18,17.3-4.17,24.47-9.79,16.11-12.65,23.59-29.8,25.69-48.75Z"/>
</svg>