<?xml version="1.0" encoding="UTF-8"?>
<svg id="Ebene_1" data-name="Ebene 1" xmlns="http://www.w3.org/2000/svg" version="1.1" viewBox="0 0 841.89 595.28">
  <defs>
    <style>
      .cls-1 {
        fill: #000;
      }

      .cls-1, .cls-2 {
        stroke-width: 0px;
      }

      .cls-2 {
        fill: #fff;
      }
    </style>
  </defs>
  <path class="cls-1" d="M93.57,231.38c.77-27.5,11.02-53.41,32.72-74.42,17.04-16.5,37.39-25.31,61.19-25.24,18.78.05,35.45,6.44,50.01,18.31,1.47,1.2,2.95,2.41,4.35,3.7,5.08,4.66,10.84,5.33,17.02,2.78,2.58-1.07,5.05-2.47,7.43-3.94,20.98-12.96,43.55-20.68,68.4-20.76,30.91-.09,58.24,9.99,82.03,29.59,6.13,5.05,12.22,6.03,19.15,2.19,3.68-2.04,7.44-3.94,11.17-5.91,14.48-7.64,29.76-10.5,45.85-6.9,22.65,5.08,39.11,23.64,41.95,46.76,3.88,31.57-13.71,62.72-43.58,77.02-5.63,2.7-10.45,6.31-14.13,11.38-3.07,4.24-5.06,8.86-5.39,14.17-.41,6.49-1.35,12.97-1.37,19.46-.02,5.83,3.54,11.35,10.97,12.77,4.21.81,8.34,2.06,12.46,3.28,7,2.07,12.52.06,16.29-6.28,1.3-2.19,2.43-4.51,3.4-6.88,5.23-12.8,12.53-24.21,22.58-33.77,12.26-11.65,26.2-20.35,43.03-23.69,10.86-2.16,21.7-1.5,32.44.89,12.08,2.69,17.45.59,24.3-9.86,5.36-8.18,10.99-16.21,18.66-22.4,15.01-12.11,31.7-16.87,50.17-9.1,14.85,6.25,22.97,18.49,26.6,33.76,6.28,26.43-5.22,55.25-27.84,70.3-3.21,2.14-6.65,3.93-9.98,5.89-6.09,3.56-9.37,8.99-9.7,15.91-.51,10.48-.25,21.01-.99,31.46-.92,12.98-5.17,24.96-12.33,35.92-14.17,21.67-33.89,35.2-59.28,40.11-18.14,3.51-35.53.6-52.1-7.48-3.78-1.84-7.66-3.49-11.53-5.13-3.27-1.38-6.72-1.35-9.94-.11-1.8.69-3.79,1.95-4.8,3.53-21.09,33.09-51.51,51.59-89.99,56.91-20.43,2.82-40.26.02-58.8-9.65-11.67-6.09-21.07-14.72-28.54-25.53-3.29-4.76-6.59-9.53-10.22-14.02-4.17-5.17-10.05-7.52-16.48-8.09-13.03-1.15-25.98-2.53-38.48-6.75-21.88-7.38-40.43-19.8-56.01-36.74-14.9-16.19-25.36-34.97-32.52-55.7-1.31-3.8-3.02-7.52-4.93-11.06-3.37-6.21-8.88-9.76-15.73-10.91-6.75-1.14-13.72-1.21-20.36-2.75-29.5-6.83-48.82-25.49-60.11-53.03-4.92-12-6.92-24.62-7.02-40ZM313.63,440.01c.03.27.06.53.09.8,4.52-.77,9.25-.92,13.5-2.43,8.62-3.07,13.32-10.09,15.81-18.52,3.71-12.56,9.3-24.18,16.72-34.92,20.79-30.11,49.76-47.15,85.49-53.36,5.43-.94,10.58-2.36,14.49-6.78,5.77-6.53,6.97-14.37,7.09-22.6.08-5.23-2.18-9.41-6.12-12.73-6.03-5.08-12.49-9.48-19.78-12.59-15.72-6.7-26.17-18.28-31.2-34.52-5.52-17.83-2.7-34.92,5.15-51.54,1.59-3.36,2.58-7.15,3.07-10.84.74-5.59.27-11.15-4.34-15.33-2.08-1.88-4.16-3.8-6.46-5.4-24.57-17.13-51.31-26.25-81.68-22.25-15.78,2.08-30.42,7.1-43.26,16.56-10.99,8.1-16.78,18.54-14.36,32.93,2.23,13.26,3.77,26.69,2.54,40.21-.61,6.65-.96,13.4-2.38,19.9-6.23,28.33-21.13,50.86-45.71,66.68-2.78,1.79-5.31,3.92-6.24,7.13-1.77,6.09-3.49,12.22-4.67,18.45-.66,3.51-.65,7.3-.17,10.86,2.28,16.9,9.53,31.81,19.92,45.05,12.92,16.47,29.26,28.7,48.56,37.06,10.89,4.72,21.92,8.32,33.94,8.18ZM597.48,455.43c1.56-.1,4.46-.18,7.33-.48,32.68-3.49,64.2-28.8,71.45-66.34,1.92-9.95,2.24-19.84.45-29.89-1.61-9.03-5.32-16.49-13.19-21.56-4.16-2.68-8.6-5.02-12.37-8.16-10.54-8.77-16.81-20.27-19.85-33.51-1.92-8.38-6.22-15.01-13.25-19.91-11.57-8.05-24.52-8.61-37.8-6.69-6.61.95-12.67,3.76-18.71,6.62-21.59,10.2-35.98,26.95-44.71,48.82-2.47,6.18-2.21,12.59.33,18.85,1.88,4.62,4.98,8.28,8.42,11.81,14.61,15.01,21.12,33.09,19.77,53.91-.45,6.96-.99,13.88.89,20.68,1.99,7.2,5.82,13.02,12.74,16.55,11.69,5.98,24.04,9.18,38.51,9.29ZM186.15,135.8c-22.45.3-41.88,9.08-57.94,24.81-20.29,19.88-30.09,44.61-30.4,72.89-.24,21.56,5.78,41.39,19.29,58.44,13.47,17,30.75,27.49,52.78,29.45,8.1.72,21.19-6.11,22.03-17.32.27-3.62.86-7.23.89-10.85.29-33.72,9.34-64.94,26.87-93.68,3.82-6.26,8.39-12.06,12.44-18.19,2.93-4.44,5.55-9.08,4.85-14.74-1.16-9.32-5.88-16.46-13.9-21.15-11.23-6.57-23.53-9.51-36.9-9.65ZM431.3,502.22c27.16-.34,56.8-12.21,77.62-31.54,5.06-4.7,10.26-9.68,13.78-15.5,7.52-12.44,7.27-25.55-.36-38.02-10.5-17.15-15.89-35.65-16.2-55.72-.05-3.16-.6-6.48-1.72-9.42-3.03-7.97-9.22-12.31-17.39-14.32-9.08-2.24-18.08.94-23.34,8.75-1.89,2.81-3.59,5.75-5.19,8.73-4.06,7.57-7.57,15.47-12.09,22.76-18.21,29.38-42.93,51.1-75.84,62.76-5.02,1.78-8.58,5.01-10.96,9.48-2.11,3.96-3.71,8.34-1.99,12.85,1.28,3.36,2.93,6.69,5.02,9.61,4.87,6.79,11.15,12.18,18.24,16.59,15.45,9.6,32.46,13.2,50.44,13ZM531.13,206.44c-.1-1.65-.18-3.3-.32-4.95-3.45-40.79-44-58.73-77.23-41.95-4.88,2.47-8.13,6.59-9.07,12.05-1.62,9.43.18,18.37,4.44,26.88,2.99,5.99,6.09,11.93,8.89,18,6.06,13.14,9.52,27.1,12.41,41.21.97,4.74,3.25,8.12,8.28,9.38,9.18,2.29,17.56-.3,24.58-5.57,18.2-13.65,26.98-32.46,28.01-55.05ZM729.31,275.56c-.04-13.76-2.47-23.75-8.31-32.77-11.4-17.59-32.35-23.69-51.33-14.8-13.89,6.51-23.23,17.41-29.4,31.27-1.63,3.67-1.85,7.37-.81,11.13,1.34,4.79,3.73,8.93,7.76,12.08,2.92,2.29,5.74,4.74,8.4,7.33,7.66,7.44,13.81,16.01,18.57,25.55,1.79,3.59,3.95,6.79,7.23,9.27,6.98,5.26,12.76,5.73,20.01.74,18.5-12.74,26.94-30.86,27.88-49.8ZM266.27,221.59c-.35-3.26-.7-8.72-1.56-14.09-1.12-6.91-3.73-13.22-9.2-17.93-7.21-6.2-14.24-6.07-21.35.17-6.67,5.86-11.79,12.97-16.13,20.59-9.95,17.46-15.87,36.18-17.71,56.28-.92,10.07-.62,19.9,1.57,29.77,1.73,7.78,9.91,13.67,18.33,10.18,9.22-3.82,16.58-10.08,22.75-17.52,15.63-18.85,22.8-40.91,23.31-67.45ZM437.33,339.24c-2.44.36-5.01.37-7.3,1.15-6.86,2.34-13.71,4.75-20.38,7.57-10.01,4.23-19.45,9.59-27.66,16.75-12.17,10.6-21.35,23.37-26.73,38.72-2.29,6.53-4.31,13.08-2.61,20.09,1.31,5.41,3.89,9.83,9.68,11.5,4.68,1.35,9.2,1.14,13.77-.84,35.23-15.25,59.72-41.27,75.92-75.58,2.57-5.45,1.36-11.37-2.85-15.54-3.27-3.24-7.52-3.45-11.82-3.82ZM411.25,223.43c-.03,7.44,1.14,14.69,4.02,21.55,7.01,16.69,19.28,27.12,37.18,30.57,6.02,1.16,10.01-1.45,12.14-7.19,1.33-3.59,1.67-7.18,1.03-10.95-3.41-20.1-10.06-39.02-20.67-56.46-1.64-2.7-3.83-5.2-6.2-7.31-6.29-5.58-13.49-4.83-18.8,1.72-6.63,8.19-8.68,17.82-8.71,28.07ZM541.44,406.3c-.14-19.36-5.92-34.49-17.7-47.33-2.72-2.96-5.87-3.98-9.59-2.66-3.68,1.31-4.25,4.45-4.15,7.89.56,20.24,6.77,38.58,18.4,55.14,1.84,2.62,4.2,2.28,6.63,1.73,2.45-.56,4.9-1.38,5.26-4.45.49-4.1.91-8.2,1.14-10.33ZM664.58,330.86c6.71-.53,9.98-5.54,7.22-11.45-5.87-12.53-13.97-23.37-24.74-32.12-1.38-1.13-3.03-2.06-4.7-2.67-3.48-1.27-6.33.23-6.78,3.87-.33,2.63-.01,5.44.53,8.07,2.78,13.57,9.37,24.63,21.68,31.67,2.09,1.19,4.52,1.78,6.8,2.65Z"/>
  <g>
    <path class="cls-2" d="M296.36,986.33c-12.02.14-23.06-3.47-33.94-8.18-19.29-8.36-35.64-20.59-48.56-37.06-10.38-13.24-17.64-28.14-19.92-45.05-.48-3.56-.49-7.34.17-10.86,1.18-6.22,2.9-12.36,4.67-18.45.93-3.21,3.46-5.34,6.24-7.13,24.58-15.82,39.48-38.36,45.71-66.68,1.43-6.49,1.78-13.24,2.38-19.9,1.24-13.52-.31-26.95-2.54-40.21-2.42-14.39,3.37-24.82,14.36-32.93,12.83-9.47,27.48-14.48,43.26-16.56,30.37-4.01,57.11,5.12,81.68,22.25,2.29,1.6,4.38,3.52,6.46,5.4,4.61,4.18,5.08,9.74,4.34,15.33-.49,3.69-1.49,7.48-3.07,10.84-7.84,16.61-10.66,33.71-5.15,51.54,5.03,16.24,15.48,27.82,31.2,34.52,7.29,3.11,13.76,7.5,19.78,12.59,3.93,3.32,6.19,7.5,6.12,12.73-.12,8.22-1.32,16.07-7.09,22.6-3.91,4.42-9.06,5.83-14.49,6.78-35.73,6.21-64.7,23.25-85.49,53.36-7.42,10.75-13.01,22.36-16.72,34.92-2.49,8.43-7.19,15.45-15.81,18.52-4.25,1.51-8.99,1.67-13.5,2.43-.03-.27-.06-.53-.09-.8Z"/>
    <path class="cls-2" d="M580.21,1001.74c-14.47-.11-26.82-3.31-38.51-9.29-6.91-3.54-10.74-9.35-12.74-16.55-1.88-6.8-1.34-13.72-.89-20.68,1.35-20.83-5.16-38.9-19.77-53.91-3.43-3.53-6.54-7.19-8.42-11.81-2.55-6.26-2.8-12.67-.33-18.85,8.73-21.87,23.12-38.62,44.71-48.82,6.04-2.85,12.1-5.66,18.71-6.62,13.28-1.92,26.23-1.36,37.8,6.69,7.03,4.9,11.33,11.53,13.25,19.91,3.04,13.24,9.31,24.75,19.85,33.51,3.77,3.14,8.22,5.48,12.37,8.16,7.87,5.07,11.58,12.52,13.19,21.56,1.79,10.05,1.47,19.94-.45,29.89-7.25,37.55-38.76,62.85-71.45,66.34-2.87.31-5.77.38-7.33.48Z"/>
    <path class="cls-2" d="M168.88,682.12c13.37.14,25.67,3.08,36.9,9.65,8.02,4.69,12.74,11.83,13.9,21.15.71,5.66-1.92,10.31-4.85,14.74-4.05,6.13-8.62,11.93-12.44,18.19-17.53,28.74-26.58,59.96-26.87,93.68-.03,3.62-.62,7.23-.89,10.85-.84,11.2-13.92,18.04-22.03,17.32-22.03-1.96-39.31-12.44-52.78-29.45-13.5-17.05-19.52-36.88-19.29-58.44.31-28.28,10.1-53.01,30.4-72.89,16.06-15.73,35.49-24.51,57.94-24.81Z"/>
    <path class="cls-2" d="M414.03,1048.53c-17.98.19-34.99-3.4-50.44-13-7.09-4.41-13.37-9.8-18.24-16.59-2.09-2.91-3.73-6.25-5.02-9.61-1.72-4.51-.12-8.89,1.99-12.85,2.38-4.47,5.94-7.71,10.96-9.48,32.92-11.66,57.63-33.38,75.84-62.76,4.51-7.28,8.03-15.18,12.09-22.76,1.6-2.98,3.31-5.92,5.19-8.73,5.25-7.81,14.26-10.99,23.34-8.75,8.17,2.01,14.36,6.36,17.39,14.32,1.12,2.94,1.67,6.26,1.72,9.42.31,20.08,5.7,38.58,16.2,55.72,7.63,12.47,7.88,25.58.36,38.02-3.52,5.83-8.72,10.81-13.78,15.5-20.83,19.33-50.46,31.2-77.62,31.54Z"/>
    <path class="cls-2" d="M513.86,752.76c-1.03,22.59-9.8,41.41-28.01,55.05-7.03,5.27-15.4,7.86-24.58,5.57-5.03-1.26-7.31-4.64-8.28-9.38-2.89-14.11-6.35-28.06-12.41-41.21-2.8-6.07-5.89-12.02-8.89-18-4.26-8.51-6.06-17.45-4.44-26.88.94-5.47,4.18-9.59,9.07-12.05,33.23-16.78,73.78,1.16,77.23,41.95.14,1.65.21,3.3.32,4.95Z"/>
    <path class="cls-2" d="M712.04,821.88c-.93,18.94-9.38,37.06-27.88,49.8-7.25,4.99-13.03,4.53-20.01-.74-3.29-2.48-5.44-5.67-7.23-9.27-4.77-9.54-10.91-18.12-18.57-25.55-2.66-2.59-5.48-5.04-8.4-7.33-4.02-3.15-6.42-7.29-7.76-12.08-1.05-3.76-.82-7.46.81-11.13,6.17-13.86,15.51-24.76,29.4-31.27,18.98-8.89,39.93-2.79,51.33,14.8,5.84,9.01,8.27,19,8.31,32.77Z"/>
    <path class="cls-2" d="M249,767.91c-.51,26.54-7.69,48.6-23.31,67.45-6.17,7.44-13.53,13.7-22.75,17.52-8.42,3.49-16.6-2.4-18.33-10.18-2.19-9.87-2.49-19.7-1.57-29.77,1.84-20.09,7.76-38.82,17.71-56.28,4.35-7.62,9.46-14.73,16.13-20.59,7.11-6.24,14.13-6.37,21.35-.17,5.47,4.71,8.09,11.02,9.2,17.93.87,5.37,1.22,10.82,1.56,14.09Z"/>
    <path class="cls-2" d="M420.05,885.56c4.3.36,8.55.58,11.82,3.82,4.21,4.18,5.43,10.09,2.85,15.54-16.2,34.31-40.69,60.33-75.92,75.58-4.57,1.98-9.08,2.19-13.77.84-5.78-1.67-8.37-6.08-9.68-11.5-1.7-7.02.32-13.57,2.61-20.09,5.38-15.35,14.57-28.11,26.73-38.72,8.21-7.16,17.65-12.52,27.66-16.75,6.67-2.82,13.53-5.23,20.38-7.57,2.3-.78,4.86-.79,7.3-1.15Z"/>
    <path class="cls-2" d="M393.98,769.75c.02-10.25,2.07-19.88,8.7-28.07,5.31-6.56,12.51-7.3,18.8-1.72,2.37,2.1,4.56,4.6,6.2,7.31,10.6,17.44,17.26,36.36,20.67,56.46.64,3.77.3,7.36-1.03,10.95-2.13,5.75-6.12,8.35-12.14,7.19-17.9-3.45-30.17-13.88-37.18-30.57-2.88-6.86-4.06-14.11-4.02-21.55Z"/>
    <path class="cls-2" d="M524.17,952.62c-.23,2.13-.65,6.23-1.14,10.33-.37,3.07-2.81,3.89-5.26,4.45-2.43.55-4.8.89-6.63-1.73-11.63-16.56-17.84-34.9-18.4-55.14-.09-3.44.47-6.58,4.15-7.89,3.72-1.33,6.87-.31,9.59,2.66,11.78,12.84,17.56,27.97,17.7,47.33Z"/>
    <path class="cls-2" d="M647.31,877.18c-2.27-.87-4.71-1.45-6.8-2.65-12.31-7.04-18.9-18.1-21.68-31.67-.54-2.63-.85-5.43-.53-8.07.46-3.64,3.3-5.14,6.78-3.87,1.67.61,3.32,1.55,4.7,2.67,10.76,8.76,18.87,19.59,24.74,32.12,2.76,5.91-.51,10.92-7.22,11.45Z"/>
  </g>
</svg>