<?xml version="1.0" encoding="UTF-8"?>
<svg id="Ebene_1" data-name="Ebene 1" xmlns="http://www.w3.org/2000/svg" version="1.1" viewBox="0 0 841.89 595.28">
  <defs>
    <style>
      .cls-1 {
        fill: #000;
        stroke-width: 0px;
      }
    </style>
  </defs>
  <path class="cls-1" d="M503.34,523.83c-21.24-.05-40.57-4.62-59.02-13.34-8.23-3.88-16.32-7.95-23.31-13.76-5.26-4.37-10.31-9.04-15.03-13.98-7.58-7.93-16.38-13.36-27.05-16.31-11.33-3.14-22.14-2.33-33.11,1.42-15.97,5.46-32.36,8.41-49.34,6.96-8.94-.76-17.65-2.59-26.18-5.34-6.32-2.04-12.41-1.03-18.37,1.47-4.37,1.84-8.31,4.3-11.92,7.46-16.26,14.2-38.74,13.48-54.54-2.17-15.05-14.91-19.48-33.08-14.69-53.6,1.67-7.16,5.22-13.39,9.16-19.51,4.5-7,7.88-14.44,9.68-22.73,2.15-9.93,2.12-19.97,2.88-29.97,3.78-49.77,39.72-90.62,88.51-98.83,12.11-2.04,24.17-1.52,36.29-.16,8.34.94,16.13,3.58,23.93,6.46,5.23,1.93,10.56,3.79,16,4.91,12.62,2.6,24-.53,34.16-8.44,5.02-3.91,9.15-8.55,12.94-13.63,15.95-21.37,35.6-38.53,58.78-51.76,12.83-7.32,26.45-12.48,40.69-16.13,7.06-1.81,13.04-5.55,18.69-9.88,8.78-6.73,15.65-15.21,21.73-24.38,5.14-7.75,9.88-15.8,16.65-22.33,14.41-13.89,31.53-21.44,51.6-21.56,32.47-.2,59.89,22.71,65.63,54.67,3.28,18.29.68,35.79-7.85,52.34-2.79,5.41-5.85,10.69-8.44,16.2-4.67,9.96-6.3,20.44-3.64,31.21,1.27,5.16,3.39,10.12,5.22,15.13,4.61,12.58,7.53,25.58,9.04,38.84,7.21,63.14-10.58,118.47-52.95,165.68-21.41,23.86-47.57,40.74-78.61,49.62-12.53,3.59-25.33,5.38-37.53,5.44ZM670.84,338.36c.01-30.07-2.58-48.85-9.57-67.85-7.14-19.39-19.2-26.01-36.82-28.47-6.7-.94-13.54-.76-20.31-1.2-7.43-.49-14.68-1.73-21.68-4.49-13.21-5.21-24.33-13.07-32.44-24.86-2.92-4.24-5.52-8.7-8.54-12.86-6.28-8.63-14.62-14.37-24.95-17.22-9.37-2.58-18.68-1.89-27.94.45-8.61,2.18-16.54,6.08-24.17,10.47-6.2,3.56-12.53,7.17-17.96,11.75-10.39,8.77-19.62,18.75-27.97,29.53-5.8,7.49-11.37,15.07-14.57,24.08-1.62,4.55-3.31,9.11-4.38,13.8-1.81,7.93-2.08,16.02-1.67,24.17.48,9.42,1.86,18.58,5.3,27.44,9.82,25.27,10.82,50.93,3.03,76.93-2.38,7.93-4.77,15.84-5.88,24.13-1.99,14.86-.12,29.02,6.97,42.25,5.78,10.79,12.93,20.68,21.63,29.35,4.85,4.84,10.62,8.45,16.75,11.45,27.43,13.45,56.14,16.42,85.85,10,28.04-6.06,52.49-19.34,73.46-38.67,43.62-40.2,64.07-90.79,65.85-140.19ZM306.63,471.73c11.15-.19,20.65-1.94,31.16-5.81,4.45-1.64,8.68-3.78,12.23-6.95,6.94-6.22,11.18-14.17,13.85-22.95,2.19-7.2,3.06-14.61,2.51-22.17-.4-5.52-.27-11.11-1.15-16.55-3.98-24.5-3.22-48.86,1.52-73.17,1.19-6.1,2.48-12.2,1.88-18.49-.63-6.63-3.3-12.64-6.02-18.56-3.12-6.79-8.06-12.29-13.8-17-6.93-5.69-14.28-10.68-23.17-12.99-14.33-3.72-28.8-4.64-43.4-2.23-53.42,8.82-87.85,55.88-86.55,106.27.19,7.34,2.86,14.15,7.18,20.17,3.54,4.93,9.06,6.89,14.43,8.77,7.36,2.58,13.99,6.22,19.71,11.51,10.55,9.75,16.03,21.98,17.85,36.08.67,5.23,1.59,10.41,4.56,15.01,4.76,7.38,10.96,13.05,19.43,15.6,9.02,2.72,18.35,3.65,27.78,3.45ZM608.44,97.78c-15.18.32-31.45,7.51-45.15,20.75-6.65,6.43-11.69,13.85-14.73,22.71-4.41,12.85,4.16,25.8,13.91,29.42,7.35,2.73,14.55,5.88,21.72,9.08,11.76,5.24,22.82,11.66,32.98,19.65,3.53,2.78,7.48,5.1,11.47,7.2,7.32,3.85,15.05,4.43,22.8,1.4,10.16-3.99,16.67-11.68,20.55-21.63,4.48-11.48,5.07-23.38,3.02-35.46-5.24-30.85-31.45-53.1-66.56-53.11ZM408.13,364.5c-.09-1.74-.16-4.95-.45-8.14-1.11-11.97-3.6-23.6-8.83-34.51-2.13-4.45-4.84-8.54-8.8-11.61-3.16-2.45-7.44-2.47-10.71-.13-4.76,3.41-7.69,8.08-8.93,13.74-2.86,13.12-4.28,26.42-4.37,39.85-.1,15.14,1.27,30.16,5.17,44.81.96,3.61,2.69,7.32,5.02,10.21,3.78,4.69,11.4,4.54,15.61.18,4.24-4.4,7.18-9.7,9.42-15.32,4.81-12.06,6.77-24.67,6.86-39.08ZM238.04,467.55c-.39-2.41-.42-4.95-1.25-7.2-2.59-7.09-6.5-13.49-11.52-19.09-8.06-8.98-15.19-18.57-20.74-29.33-3.39-6.59-9.5-8.87-16.52-6.54-6.04,2-9.5,6.53-12,12.03-3.25,7.15-4.32,14.71-3.75,22.46,1.08,14.65,6.73,27.21,18.34,36.49,11.24,8.99,23.86,11.69,37.46,5.93,6.24-2.64,10.05-7.44,9.98-14.75ZM605.33,236.66c1.63-.18,4.59-.36,7.48-.88,2.21-.4,4.43-1.03,6.5-1.91,6.69-2.85,10.86-8.8,8.2-16.71-1.23-3.65-3.11-6.85-5.96-9.46-11.23-10.31-23.85-18.43-37.9-24.36-5.33-2.25-10.86-3.18-16.58-2.91-9.84.47-18.36,7.66-16.05,19.67,1.68,8.71,6.08,15.96,12.76,21.7,11.54,9.9,25.09,14.55,41.55,14.86ZM216.52,394.42c-8.42.08-11.14,2.78-10.63,9.09.2,2.48,1.1,5.03,2.21,7.3,6.89,14.18,16.67,26.11,28.8,36.12,4.45,3.67,10.87,2.16,12.86-3.01.62-1.62,1.01-3.39,1.14-5.12.57-7.42-1.56-14.35-4.63-20.91-3.67-7.86-9.47-14.02-16.85-18.62-4.59-2.87-9.56-4.68-12.9-4.85Z"/>
</svg>