<?xml version="1.0" encoding="UTF-8"?>
<svg id="Ebene_1" data-name="Ebene 1" xmlns="http://www.w3.org/2000/svg" version="1.1" viewBox="0 0 841.89 595.28">
  <defs>
    <style>
      .cls-1 {
        fill: #000;
        stroke-width: 0px;
      }
    </style>
  </defs>
  <path class="cls-1" d="M482.27,34.65c23.27.13,45.76,8.05,66.03,22.69,4.71,3.41,9.63,6.64,15.22,8.35,9.05,2.77,17.91,1.31,26.54-2.13,5.95-2.37,12.06-4.06,18.48-4.57,22.1-1.75,40.19,6.17,54,23.27,29.14,36.08,14.19,93.21-28.62,110.07-3.63,1.43-7.43,2.44-11.13,3.7-7.19,2.45-14.39,4.88-21.54,7.44-5.25,1.88-9.65,5.03-13.5,9.09-8.38,8.84-16.66,17.78-25.6,26.08-9.36,8.69-19.94,15.49-31.38,21-7.44,3.58-15.1,6.72-22.66,10.05-9.28,4.08-15.9,11.09-20.87,19.65-3.64,6.27-6.72,12.88-10.08,19.32-12.33,23.68-29.91,42.17-53.73,54.55-4.56,2.37-9.03,4.92-13.41,7.59-4.25,2.59-7.06,6.55-8.96,11.03-3.29,7.75-5.56,15.76-5.75,24.3-.36,16.92-3.19,33.43-9.86,49.03-19.51,45.66-53.56,73.84-102.18,84.29-45.91,7.3-85.38-4.82-116.7-39.77-16.23-18.11-26.49-39.44-29.86-63.78-3.21-23.16.34-45.32,8.92-67.01,14.85-37.54,51.12-71.16,92.75-81.85,6.8-1.75,13.81-2.63,20.73-3.87,1.65-.3,3.33-.43,4.98-.7,9.69-1.6,15.04-6.74,17.63-17.29,2.02-8.24,3.39-16.64,5.18-24.94,3.29-15.24,9.51-29.27,17.41-42.65,9.67-16.37,22.28-29.9,38.26-40.19,7.15-4.6,12.84-10.65,18.49-16.89,7.02-7.77,10.9-17.11,14.24-26.72,5.47-15.7,13.15-30.09,24.16-42.6,20.54-23.35,49.87-36.57,82.79-36.53ZM138.98,418.25c.67,7,.9,14.08,2.1,20.99,4.59,26.4,16.14,49.09,36.58,66.88,13.09,11.38,27.98,19.52,44.39,25.03,20.01,6.72,40.36,8.7,61.13,4.39,21.09-4.38,39.86-13.67,56.4-27.42,9.15-7.61,16.98-16.53,24.1-26.03,9.13-12.19,14.82-25.96,17.67-40.87,2.66-13.92,2.27-27.83-1.5-41.51-2.54-9.25-7.73-16.76-15.88-22.1-5.91-3.87-12.18-7.03-18.68-9.77-7.02-2.97-13.7-6.58-19.86-11.09-12.8-9.36-22.44-21.35-29.67-35.4-6.33-12.31-16.5-19.75-29.98-22.6-10.75-2.28-21.61-2.17-32.27.17-13.94,3.06-27.18,8.03-38.87,16.56-9.15,6.68-17.6,14.14-25.29,22.43-6.32,6.8-11.99,14.09-16.19,22.48-9.13,18.22-13.64,37.51-14.18,57.89ZM480.34,37.72c-2.68,0-5.37-.09-8.05.03-2.23.1-4.47.35-6.67.7-35.26,5.71-61.43,24.33-78.45,55.68-2.11,3.88-3.6,8.2-4.74,12.48-1.69,6.34-1.85,12.83.18,19.2,2.71,8.51,8.16,13.95,17.24,15.3,2.32.34,4.64.71,6.97.99,12.97,1.56,25.03,5.89,36.1,12.69,18.69,11.49,32.13,27.61,40.28,47.97,2.69,6.73,4.6,13.77,6.87,20.67,2.69,8.21,5.85,16.17,11.13,23.15,2.78,3.68,6.46,5.92,10.95,6.49,3.98.51,8.02.74,12.03.64,6.98-.18,13.93-1.2,19.95-4.96,14.4-8.98,25.89-20.87,34.42-35.56,1.49-2.56,2.13-5.35,2.17-8.33.09-6.5-1.5-12.34-5.88-17.35-4.26-4.88-8.57-9.74-12.5-14.88-12.74-16.64-16.99-35.45-13.53-56,1.24-7.37,3.25-14.61,4.5-21.98,1.47-8.69.11-16.95-5.2-24.25-1.97-2.7-4.01-5.36-6.18-7.91-8.07-9.52-18.09-16.27-29.91-20.16-10.26-3.38-20.88-4.89-31.7-4.62ZM293.55,238.56c0,1.68-.11,3.36.02,5.03.9,11.88,4.91,22.62,11.84,32.32,3.88,5.42,8.25,10.31,13.92,13.88,4.44,2.8,8.98,5.46,13.52,8.09,15,8.68,27.94,19.69,38.21,33.71,3.43,4.69,6.74,9.47,10.01,14.27,2.45,3.6,5.54,6.43,9.44,8.34,7.71,3.77,15.87,5.2,24.41,4.42,9.18-.84,17.72-3.79,25.46-8.71,9.68-6.14,17.29-14.47,23.41-24.09,6.21-9.76,10.31-20.28,10.55-32.06.07-3.46-.71-6.67-2.36-9.65-4.89-8.85-11.65-15.62-20.95-20.02-10.2-4.83-19.97-10.44-28.99-17.36-18.31-14.05-32.41-31.32-41.4-52.65-3.28-7.78-8.5-13.86-15.93-17.96-6.58-3.63-13.52-6.15-21.13-5.23-10.89,1.32-19.93,6.41-27.03,14.71-7.02,8.2-12.53,17.38-17.28,27.07-4.03,8.2-6.07,16.77-5.72,25.9ZM674.66,128.07c-.27-18.38-5.05-33.12-15.71-45.64-11.22-13.19-25.26-20.34-42.95-19.36-11.81.66-21.67,5.16-28.91,14.66-3.21,4.2-4.82,9.02-3.95,14.46,1.02,6.34,3.27,12.29,5.61,18.22,5.39,13.66,8.35,27.83,8.54,42.51.08,6.03-.51,12.06-.72,18.09-.2,5.61,1.12,10.73,5.67,14.41,3.44,2.78,7.49,4.6,11.88,5.13,9.83,1.18,19.31-.32,27.75-5.61,21.68-13.58,31.73-33.77,32.8-56.86ZM403.22,146.28c-1.67,0-3.36-.12-5.02.02-8.53.71-14.73,4.82-18.13,12.8-1.78,4.2-2.26,8.62-1.89,13.14.68,8.22,2.88,16.05,6.24,23.53,10.4,23.13,26.53,41.2,48.39,54.07,10.87,6.4,22.48,10.98,34.98,13.01,9.84,1.61,18.91-4.9,20.54-14.7.42-2.51.46-5.13.35-7.68-.44-10.68-2.57-21.06-6.08-31.14-6.36-18.27-16.72-33.8-32.12-45.7-13.9-10.75-29.53-17.02-47.27-17.35ZM379.43,354.79c-.19-3.66-1.96-7.86-4.37-11.8-15.2-24.93-36.7-42.01-64.33-51.36-2.1-.71-4.34-1.24-6.54-1.32-4.96-.18-10.49,1.33-11.82,8.4-.65,3.48-.03,6.68,1.09,9.84,3.39,9.53,8.05,18.41,14.15,26.5,12.89,17.11,29.52,28.65,50.46,33.78,4.83,1.18,9.53,1.21,14.01-1.16,4.73-2.49,7.43-6.32,7.35-12.88ZM594.34,154.1c-.55-18.04-4-33.21-10.5-47.67-1.68-3.73-3.91-6.99-7.12-9.58-5.21-4.21-9.57-4.3-14.81-.22-3.91,3.05-6.63,7.01-8.05,11.69-5.51,18.27-4.14,36.02,4.72,52.97,3.35,6.42,8.14,11.66,14.52,15.41,6.66,3.92,16.22,1.16,18.59-5.75,2.05-5.95,2.67-11.93,2.64-16.86Z"/>
</svg>