<?xml version="1.0" encoding="UTF-8"?>
<svg id="Layer_1" xmlns="http://www.w3.org/2000/svg" viewBox="0 0 686.58 2516.05">
  <defs>
    <style>
      .cls-1 {
        fill: #010101;
        opacity: .1;
      }

      .cls-2 {
        fill: #f9f9fa;
        opacity: 0;
      }
    </style>
  </defs>
  <rect class="cls-2" width="686.58" height="2516.05"/>
  <path class="cls-1" d="M475.71,1966.59c-15.33-.04-29.29-3.34-42.61-9.63-5.94-2.8-11.78-5.74-16.83-9.93-3.8-3.15-7.44-6.53-10.85-10.09-5.47-5.72-11.83-9.64-19.53-11.77-8.18-2.27-15.98-1.68-23.9,1.03-11.53,3.94-23.36,6.07-35.62,5.02-6.45-.55-12.74-1.87-18.9-3.86-4.56-1.47-8.96-.74-13.26,1.06-3.15,1.33-6,3.1-8.61,5.39-11.74,10.25-27.97,9.73-39.37-1.57-10.87-10.76-14.06-23.88-10.61-38.7,1.21-5.17,3.77-9.67,6.61-14.08,3.25-5.05,5.69-10.42,6.99-16.41,1.55-7.17,1.53-14.42,2.08-21.64,2.73-35.93,28.68-65.42,63.9-71.35,8.74-1.47,17.45-1.1,26.2-.12,6.02.68,11.64,2.58,17.28,4.66,3.78,1.39,7.62,2.74,11.55,3.54,9.11,1.88,17.33-.38,24.66-6.09,3.62-2.82,6.61-6.17,9.34-9.84,11.51-15.43,25.7-27.82,42.44-37.37,9.26-5.28,19.1-9.01,29.38-11.64,5.1-1.31,9.41-4.01,13.49-7.13,6.34-4.86,11.3-10.98,15.69-17.6,3.71-5.59,7.13-11.41,12.02-16.12,10.4-10.03,22.76-15.48,37.25-15.56,23.44-.14,43.24,16.4,47.38,39.47,2.37,13.2.49,25.84-5.67,37.79-2.01,3.91-4.22,7.72-6.09,11.7-3.37,7.19-4.55,14.76-2.63,22.53.92,3.73,2.45,7.31,3.77,10.92,3.33,9.08,5.44,18.47,6.53,28.04,5.21,45.58-7.64,85.53-38.23,119.61-15.46,17.23-34.34,29.41-56.75,35.82-9.05,2.59-18.29,3.88-27.09,3.93h0ZM596.63,1832.7c0-21.71-1.86-35.27-6.91-48.98-5.15-14-13.86-18.78-26.58-20.55-4.84-.68-9.77-.55-14.66-.87-5.36-.35-10.6-1.25-15.65-3.24-9.54-3.76-17.56-9.44-23.42-17.95-2.11-3.06-3.99-6.28-6.17-9.28-4.53-6.23-10.55-10.37-18.01-12.43-6.76-1.86-13.49-1.36-20.17.32-6.22,1.57-11.94,4.39-17.45,7.56-4.48,2.57-9.05,5.18-12.97,8.48-7.5,6.33-14.16,13.54-20.19,21.32-4.19,5.41-8.21,10.88-10.52,17.38-1.17,3.28-2.39,6.58-3.16,9.96-1.31,5.72-1.5,11.57-1.21,17.45.35,6.8,1.34,13.41,3.83,19.81,7.09,18.24,7.81,36.77,2.19,55.54-1.72,5.72-3.44,11.44-4.24,17.42-1.44,10.73-.09,20.95,5.03,30.5,4.17,7.79,9.33,14.93,15.62,21.19,3.5,3.49,7.67,6.1,12.09,8.27,19.8,9.71,40.53,11.85,61.98,7.22,20.24-4.37,37.89-13.96,53.03-27.92,31.49-29.02,46.25-65.54,47.54-101.21h0ZM333.7,1928.98c8.05-.14,14.91-1.4,22.5-4.19,3.21-1.18,6.27-2.73,8.83-5.02,5.01-4.49,8.07-10.23,10-16.57,1.58-5.2,2.21-10.55,1.81-16.01-.29-3.99-.19-8.02-.83-11.95-2.87-17.69-2.32-35.27,1.1-52.82.86-4.4,1.79-8.81,1.36-13.35-.45-4.79-2.38-9.13-4.35-13.4-2.25-4.9-5.82-8.87-9.96-12.27-5-4.11-10.31-7.71-16.73-9.38-10.35-2.69-20.79-3.35-31.33-1.61-38.57,6.37-63.42,40.34-62.48,76.72.14,5.3,2.06,10.22,5.18,14.56,2.56,3.56,6.54,4.97,10.42,6.33,5.31,1.86,10.1,4.49,14.23,8.31,7.62,7.04,11.57,15.87,12.89,26.05.48,3.78,1.15,7.52,3.29,10.84,3.44,5.33,7.91,9.42,14.03,11.26,6.51,1.96,13.25,2.64,20.06,2.49h0ZM551.58,1659.01c-10.96.23-22.7,5.42-32.6,14.98-4.8,4.64-8.44,10-10.63,16.4-3.18,9.28,3,18.63,10.04,21.24,5.31,1.97,10.5,4.24,15.68,6.56,8.49,3.78,16.47,8.42,23.81,14.19,2.55,2.01,5.4,3.68,8.28,5.2,5.28,2.78,10.87,3.2,16.46,1.01,7.33-2.88,12.03-8.43,14.84-15.62,3.23-8.29,3.66-16.88,2.18-25.6-3.78-22.27-22.7-38.33-48.05-38.34h0ZM406.97,1851.57c-.06-1.26-.12-3.57-.32-5.88-.8-8.64-2.6-17.04-6.37-24.91-1.54-3.21-3.49-6.17-6.35-8.38-2.28-1.77-5.37-1.78-7.73-.09-3.44,2.46-5.55,5.83-6.45,9.92-2.06,9.47-3.09,19.07-3.15,28.77-.07,10.93.92,21.77,3.73,32.35.69,2.61,1.94,5.28,3.62,7.37,2.73,3.39,8.23,3.28,11.27.13,3.06-3.18,5.18-7,6.8-11.06,3.47-8.71,4.89-17.81,4.95-28.21h0ZM284.18,1925.96c-.28-1.74-.3-3.57-.9-5.2-1.87-5.12-4.69-9.74-8.32-13.78-5.82-6.48-10.97-13.41-14.97-21.17-2.45-4.76-6.86-6.4-11.93-4.72-4.36,1.44-6.86,4.71-8.66,8.68-2.35,5.16-3.12,10.62-2.71,16.21.78,10.58,4.86,19.64,13.24,26.34,8.11,6.49,17.23,8.44,27.04,4.28,4.5-1.91,7.26-5.37,7.2-10.65h0ZM549.34,1759.28c1.18-.13,3.31-.26,5.4-.64,1.6-.29,3.2-.74,4.69-1.38,4.83-2.06,7.84-6.35,5.92-12.06-.89-2.64-2.25-4.95-4.3-6.83-8.11-7.44-17.22-13.31-27.36-17.59-3.85-1.62-7.84-2.3-11.97-2.1-7.1.34-13.25,5.53-11.59,14.2,1.21,6.29,4.39,11.52,9.21,15.67,8.33,7.15,18.11,10.5,30,10.73h0ZM268.64,1873.17c-6.08.06-8.04,2.01-7.67,6.56.14,1.79.79,3.63,1.6,5.27,4.97,10.24,12.03,18.85,20.79,26.08,3.21,2.65,7.85,1.56,9.28-2.17.45-1.17.73-2.45.82-3.7.41-5.36-1.13-10.36-3.34-15.1-2.65-5.67-6.84-10.12-12.16-13.44-3.31-2.07-6.9-3.38-9.31-3.5h0Z"/>
  <path class="cls-1" d="M362.92,1193.09c.4-17.62,3.86-32.56,11.89-46.24,3.16-5.39,2.86-10.98,1.43-16.66-.34-1.37-1.37-2.6-2.23-3.79-4.15-5.72-7.71-11.79-10.58-18.25-1.12-2.54-2.1-5.15-3.17-7.71-1.73-4.16-5.47-6.52-9.95-5.91-6.15.84-12.31.85-18.49.9-3.17.03-6.2-.56-9.25-1.33-3.7-.93-7.42-1.86-11.18-2.43-5.28-.79-9.71,1.18-13.37,4.96-.72.75-1.36,1.6-1.91,2.48-3.52,5.53-7.72,10.52-12.1,15.37-8.88,9.84-19.5,17.03-32.35,20.6-14.6,4.05-28.77,2.51-42.46-3.76-17.3-7.93-28.07-21.51-33.61-39.45-3.52-11.42-3.99-23.11-2.23-34.87,4.08-27.23,18.09-47.96,41.36-62.47,8.53-5.31,17.87-8.57,27.86-9.63,6.25-.67,12.49-.29,18.67,1.1,6.38,1.44,12.57,3.37,18.59,5.92,5.19,2.19,9.99,1.46,14.34-2.23,4.69-3.97,9.99-6.95,15.58-9.41,8.2-3.6,16.74-4.9,25.71-4.12,9.14.8,17.07,4.42,24.54,9.39,2.42,1.61,4.92,2.92,7.81,3.42,2.99.52,5.74.03,8.13-1.85,1.7-1.34,3.27-2.86,4.87-4.32,3.86-3.5,7.48-7.32,11.62-10.46,6.14-4.64,13.17-7.72,20.49-10.08,2.15-.69,4.31-1.36,6.5-1.88,4.88-1.16,8.68-3.93,11.76-7.73,5.02-6.2,11.27-10.68,18.89-12.9,17.76-5.18,35.36,2.53,42.09,18.38,3.19,7.5,3.46,15.19,1.1,22.96-1.02,3.34-2.01,6.64-1.87,10.21.17,4.42,1.09,8.57,3.45,12.4,4.07,6.62,6.72,13.91,9.73,21.05,3.18,7.55,8.41,12.92,16.53,15.49,6.9,2.19,13.97,3.5,20.99,5.06,16.71,3.7,31.07,11.75,43.65,23.29,9.73,8.93,16.04,19.99,21.05,31.98,5.63,13.46,7.18,27.53,6.33,41.95-.22,3.73-.69,7.45-1.24,11.14-.95,6.49.57,12.26,4.78,17.28.72.86,1.57,1.62,2.47,2.31,13.1,10.12,20.54,23.49,22.17,39.88,1.49,15.06-2.36,28.68-12.61,40.11-6.81,7.6-15.41,11.95-25.52,13.52-14.05,2.17-25.99-2.35-36.76-11.05-4.26-3.44-7.38-7.83-10.68-12.09-2.23-2.88-4.4-5.83-6.76-8.6-2.76-3.23-6.4-5.36-10.24-7.05-2.97-1.3-6.19-1.73-9.43-1.63-5.65.18-11.3.7-16.94.61-5.12-.08-10.22-.85-15.34-1.18-2.77-.19-5.57-.33-8.32-.08-3.62.33-6.93,1.8-9.66,4.2-2.6,2.29-5.22,4.64-7.4,7.3-5.86,7.14-12.49,13.34-20.59,17.84-9.35,5.2-19.41,7.74-30.08,6.87-15.39-1.24-28.42-7.65-38.89-19.02-9.91-10.74-15.62-23.55-17.93-37.9-.73-4.54-.95-9.16-1.22-11.9h-.01ZM519.24,1223.91c1.01,0,2.76.13,4.49-.02,8.04-.68,14.58-4.22,19.57-10.58,3.36-4.28,4.84-9.3,6.21-14.48,4.61-17.42,15.25-29.16,32.97-33.9,5.48-1.47,10.81-3.25,15.7-6.2,4.22-2.54,7.36-6,9.53-10.43,2.7-5.53,3.09-11.44,2.67-17.35-1.08-15.25-5.62-29.49-13.28-42.72-5.46-9.42-12.08-17.89-20.82-24.52-9.85-7.46-20.8-12.53-33-14.8-5.15-.96-10.34-1.39-15.57-1.39-6.59,0-11.26,3.03-14.03,9-1.68,3.62-2.31,7.48-2.44,11.41-.28,8.28-1.67,16.43-2.85,24.61-1.45,10.13-5.62,19.33-9.97,28.44-1.68,3.52-3.85,6.81-5.86,10.15-1.57,2.6-3.33,5.09-4.87,7.71-2.94,5.02-3.69,10.44-2.54,16.11.74,3.66,1.5,7.32,2.37,10.96,2.38,9.91,3.16,19.92,1.95,30.05-.45,3.75-.48,7.4.46,11.11,1.82,7.13,6.07,11.9,12.98,14.46,5.06,1.88,10.2,2.85,16.31,2.36h0ZM233.34,1133.63c4.99.05,9.92-.52,14.75-1.67,10.31-2.43,19.77-6.77,27.89-13.58,8.1-6.8,13.6-15.56,17.41-25.34,2.52-6.47,2-12.75-2.2-18.57-1.57-2.17-2.94-4.53-4.16-6.92-3.85-7.51-7.54-15.06-8.82-23.57-1.8-12.02-1.17-23.77,3.48-35.11,1-2.43.95-4.69.13-7.09-.97-2.82-2.58-5.2-5.19-6.64-3.03-1.67-6.07-3.49-9.33-4.55-10.21-3.32-20.67-3.79-31.15-1.44-17.59,3.93-31.85,13.33-42.86,27.43-15.38,19.69-20.92,42.13-17.11,66.77,2.48,16.07,10.15,29.23,23.06,39.3,10.06,7.85,21.64,10.73,34.1,10.97h0ZM423.35,973.38v-2.61c0-3.86-1.75-5.84-5.66-5.92-2.14-.05-4.39.12-6.41.77-3.38,1.09-6.67,2.5-9.88,4.04-7,3.37-12.89,8.14-17.7,14.31-3.17,4.07-4.6,8.66-4.21,13.64.51,6.5,1.79,12.95,4.07,19.08,2.27,6.12,3.45,12.34,3.42,18.87-.07,15.26-3.9,29.22-13.74,41.21-1.27,1.55-2.56,3.09-3.67,4.75-1.05,1.58-2.08,3.24-2.73,5.01-2.27,6.17-2.15,12.41-.34,18.71,1.98,6.89,5.61,12.86,9.86,18.55,4.22,5.66,10.13,7.12,16.31,3.82,2.22-1.19,4.41-2.46,6.56-3.76,9.56-5.78,17.04-13.45,21.42-23.86,4.03-9.57,9.76-18.01,16.62-25.75,5.16-5.84,10.87-11.02,17.42-15.24,8.58-5.54,17.79-9.8,27.22-13.67,4.34-1.78,8.58-3.79,12.88-5.68,3.76-1.65,5.86-4.66,6.5-8.55.36-2.19.33-4.55-.03-6.74-.98-5.99-3.34-11.51-6.6-16.61-.93-1.45-2.08-2.8-3.34-3.99-3.53-3.31-8.53-4.07-13.04-1.71-3.06,1.61-6.32,2.91-9.61,3.99-5.86,1.92-11.9,2.7-18.01,1.45-17.07-3.48-27.91-17.19-27.33-34.08v.02ZM365.28,1189.16c.48,4.57.73,9.19,1.47,13.72,2.11,12.91,6.8,24.83,14.87,35.19,12.86,16.5,29.58,23.78,50.46,19.76,15.26-2.93,27.69-10.99,37.7-22.69,4.25-4.96,5.17-9.88.19-16.6-.71-.97-1.64-1.82-2.61-2.53-3.7-2.74-7.37-5.53-11.22-8.05-8.82-5.76-16.52-12.73-22.96-21.04-1.42-1.83-2.53-3.97-3.48-6.09-1.42-3.17-2.6-6.44-3.83-9.69-3.43-8.97-9.66-14.89-19.02-17.32-2.88-.75-5.62-1.77-8.1-3.46-2.45-1.66-4.95-3.23-7.39-4.9-3.08-2.12-6.23-2-9.31-.19-1.32.78-2.55,1.88-3.47,3.09-1.46,1.93-2.7,4.04-3.92,6.13-6.24,10.7-9.07,22.3-9.4,34.66h0ZM310.4,1052.16c-.48,4.88-1.33,12.57-1.96,20.27-.32,3.85-.07,7.89,2.51,10.94,5.35,6.35,12.3,9.89,20.72,9.9,4.4,0,8.31-1.53,11.49-4.76,3.32-3.37,5.42-7.38,6.8-11.86,1.86-6.05,2.19-12.32,2.53-18.56.72-13.18,3.42-26,6.63-38.75,2.63-10.44,1.92-20.39-4.41-29.45-3.42-4.89-7.71-8.61-13.8-10.01-6.71-1.55-13.41-1.88-20.19-.84-9.54,1.46-16.76,6.43-21.84,14.55-3.25,5.2-4.23,10.58-1.06,16.27,2.12,3.79,4.1,7.66,6.06,11.53,4.44,8.77,6.63,18.08,6.5,30.76h.02ZM639.1,1216.51c.36-10.33-4.15-20.67-12.21-29.64-2.47-2.75-5.35-5-8.61-6.69-4.42-2.29-8.84-2.29-13.11.5-3.07,2.02-5.83,4.4-8.14,7.26-1.36,1.69-2.71,3.4-4.09,5.08-7.07,8.68-15.48,15.72-25.46,20.82-3.28,1.67-5.87,4.05-7.99,6.94-3.11,4.22-4.71,8.82-3.23,14.19,3.17,11.5,10.5,19.39,20.97,24.6,5.86,2.92,12.2,4.05,18.65,4.39,6.05.32,11.95-.6,17.52-3.16,15.19-6.96,25.88-23.1,25.67-44.29h0ZM507.36,1074.71c.13-6.63-.34-11.9-1.73-17.07-1.06-4-3.4-6.96-7.22-8.74-4.53-2.11-9.17-2.47-13.97-1.23-8.49,2.19-16.41,5.74-23.8,10.4-3.89,2.45-7.67,5.14-11.19,8.1-4.26,3.58-7.99,7.73-11.37,12.19-3.43,4.51-6.67,9.14-8.96,14.34-1.63,3.71-2.47,7.6-2.4,11.67.09,4.77,2.7,8.32,7.24,9.72,2.65.82,5.32,1.59,8.01,2.27,10.36,2.59,19.45,7.39,26.78,15.28,3.39,3.65,7.44,4.36,11.73,1.84,6.09-3.58,11.26-8.18,14.67-14.48,7.72-14.22,12.47-29.24,12.18-44.29h0ZM486.88,1186.03c.07-9.37-1.4-18.15-4.35-26.69-2.04-5.9-8.04-10.02-14.97-7.22-7.56,3.06-15.24,5.81-22.81,8.86-1.9.77-3.62,2.05-5.32,3.23-1.87,1.29-2.86,3.17-3.37,5.39-.9,3.92-.19,7.61,1.47,11.16,4.24,9.1,9.73,17.24,18.02,23.21,4.38,3.16,8.8,6.25,13.81,8.32,5.23,2.16,10.42.55,13.36-4.31,1.19-1.96,2.04-4.24,2.58-6.48,1.23-5.18,1.65-10.47,1.59-15.47h0ZM454.46,1005.68c6.19-.03,10.46-.82,14.64-2,5.94-1.67,11.17-8.49,7.2-15.84-1.39-2.58-2.98-5.12-4.81-7.41-5.8-7.28-13.75-11.26-22.42-13.99-3.74-1.18-7.59-1.9-11.55-1.63-2.57.17-5.04.74-6.83,2.76-3.95,4.46-5.61,9.53-3.78,15.41.41,1.32.89,2.64,1.49,3.89,5.61,11.69,15.04,17.76,26.04,18.82h0ZM417.75,1131.17c.14,10.09,4.36,17.93,12.99,23.21,3.69,2.26,7.77,3.76,12.15,3.13,6.11-.89,12.16-2.27,17.66-5.19,6.19-3.29,9.47-11.22,5-18.31-1.79-2.85-4.22-5.08-6.96-6.97-8.1-5.63-17.08-8.82-26.93-9.58-2.68-.21-5.2.32-7.61,1.37-3.66,1.6-5.67,4.48-6.1,8.43-.14,1.3-.14,2.6-.2,3.91h0ZM492.67,970.78c-.17-13.07-9.04-25.13-21.43-29.2-5.63-1.84-11.31-1.53-17-.54-4.42.77-8.45,2.56-12.23,4.96-2.89,1.83-5.03,4.26-6.09,7.55-.87,2.71-.28,4.61,2.18,6.01,1.94,1.1,4.06,1.94,6.16,2.72,5.87,2.15,11.75,4.28,17.21,7.36,5.06,2.86,10.07,5.8,15.13,8.68,1.36.77,2.76,1.46,4.16,2.15,5,2.51,10.97-.59,11.71-6.33.15-1.12.14-2.25.2-3.38h0ZM355.81,1053c0,2.17-.1,4.35.02,6.52.22,4.2.98,8.31,3.21,11.96,1.77,2.9,4.7,3.7,7.62,1.96,1.61-.96,3.23-2.17,4.36-3.64,2.23-2.87,4.24-5.92,6.13-9.04,4.39-7.24,7.04-15.01,7.49-23.57.52-10.09-1.91-19.28-7.4-27.69-.79-1.22-1.83-2.33-2.95-3.25-1.61-1.31-3.36-1.47-5.29-.3-2.1,1.26-3.13,3.18-4,5.29-5.49,13.39-8.73,27.27-9.17,41.77h0ZM584.3,1169.32c-1.88.29-3.86.29-5.61.93-4,1.45-7.86,3.25-11.37,5.74-6.29,4.47-10.47,10.64-13.78,17.41-1.87,3.84-2.78,8.06-3.08,12.33-.25,3.54,1.79,6,5.22,6.7,3.71.77,7.38.44,10.67-1.31,8.76-4.65,16.65-10.43,22.59-18.54,2.89-3.94,5.56-8,6.92-12.78,1.18-4.12.26-6.39-3.49-8.48-2.49-1.39-5.16-2.05-8.06-2h0ZM307.58,1044.43c-.48-6.99-2.12-13.61-4.97-19.94-1.3-2.89-3.02-5.46-5.77-7.22-4.19-2.69-8.37-2.11-11.6,1.69-4.61,5.42-5.98,11.85-5.6,18.73.28,5.23,1.43,10.31,3.11,15.27,1.79,5.29,4.64,9.86,9.08,13.39,1.88,1.49,3.89,1.73,6.13,1.25,3.03-.65,4.92-2.67,5.82-5.43,1.16-3.62,2.04-7.35,2.87-11.07.49-2.19.64-4.45.94-6.68h0ZM415.42,1134.35c-.2-2.33-.21-4.69-.64-6.97-.66-3.5-3.42-5.11-6.95-4.57-5.94.9-10.64,4.14-14.94,7.96-3.56,3.15-3.46,7.96.07,11.26,2.66,2.49,5.65,4.61,9.1,5.96.95.38,1.98.67,3,.75,3.77.3,7.22-1.89,8.98-5.47,1.4-2.85,1.43-5.86,1.39-8.92h0Z"/>
  <path class="cls-1" d="M212.37,2402.88c.4-17.62,3.86-32.56,11.89-46.24,3.16-5.39,2.86-10.98,1.43-16.66-.34-1.37-1.37-2.6-2.23-3.79-4.15-5.72-7.71-11.79-10.58-18.25-1.12-2.54-2.1-5.15-3.17-7.71-1.73-4.16-5.47-6.52-9.95-5.91-6.15.84-12.31.85-18.49.9-3.17.03-6.2-.56-9.25-1.33-3.7-.93-7.42-1.86-11.18-2.43-5.28-.79-9.71,1.18-13.37,4.96-.72.75-1.36,1.6-1.91,2.48-3.52,5.53-7.72,10.52-12.1,15.37-8.88,9.84-19.5,17.03-32.35,20.6-14.6,4.05-28.77,2.51-42.46-3.76-17.3-7.93-28.07-21.51-33.61-39.45-3.52-11.42-3.99-23.11-2.23-34.87,4.08-27.23,18.09-47.96,41.36-62.47,8.53-5.31,17.87-8.57,27.86-9.63,6.25-.67,12.49-.29,18.67,1.1,6.38,1.44,12.57,3.37,18.59,5.92,5.19,2.19,9.99,1.46,14.34-2.23,4.69-3.97,9.99-6.95,15.58-9.41,8.2-3.6,16.74-4.9,25.71-4.12,9.14.8,17.07,4.42,24.54,9.39,2.42,1.61,4.92,2.92,7.81,3.42,2.99.52,5.74.03,8.13-1.85,1.7-1.34,3.27-2.86,4.87-4.32,3.86-3.5,7.48-7.32,11.62-10.46,6.14-4.64,13.17-7.72,20.49-10.08,2.15-.69,4.31-1.36,6.5-1.88,4.88-1.16,8.68-3.93,11.76-7.73,5.02-6.2,11.27-10.68,18.89-12.9,17.76-5.18,35.36,2.53,42.09,18.38,3.19,7.5,3.46,15.19,1.1,22.96-1.02,3.34-2.01,6.64-1.87,10.21.17,4.42,1.09,8.57,3.45,12.4,4.07,6.62,6.72,13.91,9.73,21.05,3.18,7.55,8.41,12.92,16.53,15.49,6.9,2.19,13.97,3.5,20.99,5.06,16.71,3.7,31.07,11.75,43.65,23.29,9.73,8.93,16.04,19.99,21.05,31.98,5.63,13.46,7.18,27.53,6.33,41.95-.22,3.73-.69,7.45-1.24,11.14-.95,6.49.57,12.26,4.78,17.28.72.86,1.57,1.62,2.47,2.31,13.1,10.12,20.54,23.49,22.17,39.88,1.49,15.06-2.36,28.68-12.61,40.11-6.81,7.6-15.41,11.95-25.52,13.52-14.05,2.17-25.99-2.35-36.76-11.05-4.26-3.44-7.38-7.83-10.68-12.09-2.23-2.88-4.4-5.83-6.76-8.6-2.76-3.23-6.4-5.36-10.24-7.05-2.97-1.3-6.19-1.73-9.43-1.63-5.65.18-11.3.7-16.94.61-5.12-.08-10.22-.85-15.34-1.18-2.77-.19-5.57-.33-8.32-.08-3.62.33-6.93,1.8-9.66,4.2-2.6,2.29-5.22,4.64-7.4,7.3-5.86,7.14-12.49,13.34-20.59,17.84-9.35,5.2-19.41,7.74-30.08,6.87-15.39-1.24-28.42-7.65-38.89-19.02-9.91-10.74-15.62-23.55-17.93-37.9-.73-4.54-.95-9.16-1.22-11.9h-.01ZM368.69,2433.7c1.01,0,2.76.13,4.49-.02,8.04-.68,14.58-4.22,19.57-10.58,3.36-4.28,4.84-9.3,6.21-14.48,4.61-17.42,15.25-29.16,32.97-33.9,5.48-1.47,10.81-3.25,15.7-6.2,4.22-2.54,7.36-6,9.53-10.43,2.7-5.53,3.09-11.44,2.67-17.35-1.08-15.25-5.62-29.49-13.28-42.72-5.46-9.42-12.08-17.89-20.82-24.52-9.85-7.46-20.8-12.53-33-14.8-5.15-.96-10.34-1.39-15.57-1.39-6.59,0-11.26,3.03-14.03,9-1.68,3.62-2.31,7.48-2.44,11.41-.28,8.28-1.67,16.43-2.85,24.61-1.45,10.13-5.62,19.33-9.97,28.44-1.68,3.52-3.85,6.81-5.86,10.15-1.57,2.6-3.33,5.09-4.87,7.71-2.94,5.02-3.69,10.44-2.54,16.11.74,3.66,1.5,7.32,2.37,10.96,2.38,9.91,3.16,19.92,1.95,30.05-.45,3.75-.48,7.4.46,11.11,1.82,7.13,6.07,11.9,12.98,14.46,5.06,1.88,10.2,2.85,16.31,2.36h0ZM82.8,2343.43c4.99.05,9.92-.52,14.75-1.67,10.31-2.43,19.77-6.77,27.89-13.58,8.1-6.8,13.6-15.56,17.41-25.34,2.52-6.47,2-12.75-2.2-18.57-1.57-2.17-2.94-4.53-4.16-6.92-3.85-7.51-7.54-15.06-8.82-23.57-1.8-12.02-1.17-23.77,3.48-35.11,1-2.43.95-4.69.13-7.09-.97-2.82-2.58-5.2-5.19-6.64-3.03-1.67-6.07-3.49-9.33-4.55-10.21-3.32-20.67-3.79-31.15-1.44-17.59,3.93-31.85,13.33-42.86,27.43-15.38,19.69-20.92,42.13-17.11,66.77,2.48,16.07,10.15,29.23,23.06,39.3,10.06,7.85,21.64,10.73,34.1,10.97h0ZM272.8,2183.18v-2.61c0-3.86-1.75-5.84-5.66-5.92-2.14-.05-4.39.12-6.41.77-3.38,1.09-6.67,2.5-9.88,4.04-7,3.37-12.89,8.14-17.7,14.31-3.17,4.07-4.6,8.66-4.21,13.64.51,6.5,1.79,12.95,4.07,19.08,2.27,6.12,3.45,12.34,3.42,18.87-.07,15.26-3.9,29.22-13.74,41.21-1.27,1.55-2.56,3.09-3.67,4.75-1.05,1.58-2.08,3.24-2.73,5.01-2.27,6.17-2.15,12.41-.34,18.71,1.98,6.89,5.61,12.86,9.86,18.55,4.22,5.66,10.13,7.12,16.31,3.82,2.22-1.19,4.41-2.46,6.56-3.76,9.56-5.78,17.04-13.45,21.42-23.86,4.03-9.57,9.76-18.01,16.62-25.75,5.16-5.84,10.87-11.02,17.42-15.24,8.58-5.54,17.79-9.8,27.22-13.67,4.34-1.78,8.58-3.79,12.88-5.68,3.76-1.65,5.86-4.66,6.5-8.55.36-2.19.33-4.55-.03-6.74-.98-5.99-3.34-11.51-6.6-16.61-.93-1.45-2.08-2.8-3.34-3.99-3.53-3.31-8.53-4.07-13.04-1.71-3.06,1.61-6.32,2.91-9.61,3.99-5.86,1.92-11.9,2.7-18.01,1.45-17.07-3.48-27.91-17.19-27.33-34.08v.02ZM214.73,2398.95c.48,4.57.73,9.19,1.47,13.72,2.11,12.91,6.8,24.83,14.87,35.19,12.86,16.5,29.58,23.78,50.46,19.76,15.26-2.93,27.69-10.99,37.7-22.69,4.25-4.96,5.17-9.88.19-16.6-.71-.97-1.64-1.82-2.61-2.53-3.7-2.74-7.37-5.53-11.22-8.05-8.82-5.76-16.52-12.73-22.96-21.04-1.42-1.83-2.53-3.97-3.48-6.09-1.42-3.17-2.6-6.44-3.83-9.69-3.43-8.97-9.66-14.89-19.02-17.32-2.88-.75-5.62-1.77-8.1-3.46-2.45-1.66-4.95-3.23-7.39-4.9-3.08-2.12-6.23-2-9.31-.19-1.32.78-2.55,1.88-3.47,3.09-1.46,1.93-2.7,4.04-3.92,6.13-6.24,10.7-9.07,22.3-9.4,34.66h0ZM159.85,2261.95c-.48,4.88-1.33,12.57-1.96,20.27-.32,3.85-.07,7.89,2.51,10.94,5.35,6.35,12.3,9.89,20.72,9.9,4.4,0,8.31-1.53,11.49-4.76,3.32-3.37,5.42-7.38,6.8-11.86,1.86-6.05,2.19-12.32,2.53-18.56.72-13.18,3.42-26,6.63-38.75,2.63-10.44,1.92-20.39-4.41-29.45-3.42-4.89-7.71-8.61-13.8-10.01-6.71-1.55-13.41-1.88-20.19-.84-9.54,1.46-16.76,6.43-21.84,14.55-3.25,5.2-4.23,10.58-1.06,16.27,2.12,3.79,4.1,7.66,6.06,11.53,4.44,8.77,6.63,18.08,6.5,30.76h.02ZM488.55,2426.3c.36-10.33-4.15-20.67-12.21-29.64-2.47-2.75-5.35-5-8.61-6.69-4.42-2.29-8.84-2.29-13.11.5-3.07,2.02-5.83,4.4-8.14,7.26-1.36,1.69-2.71,3.4-4.09,5.08-7.07,8.68-15.48,15.72-25.46,20.82-3.28,1.67-5.87,4.05-7.99,6.94-3.11,4.22-4.71,8.82-3.23,14.19,3.17,11.5,10.5,19.39,20.97,24.6,5.86,2.92,12.2,4.05,18.65,4.39,6.05.32,11.95-.6,17.52-3.16,15.19-6.96,25.88-23.1,25.67-44.29h0ZM356.81,2284.5c.13-6.63-.34-11.9-1.73-17.07-1.06-4-3.4-6.96-7.22-8.74-4.53-2.11-9.17-2.47-13.97-1.23-8.49,2.19-16.41,5.74-23.8,10.4-3.89,2.45-7.67,5.14-11.19,8.1-4.26,3.58-7.99,7.73-11.37,12.19-3.43,4.51-6.67,9.14-8.96,14.34-1.63,3.71-2.47,7.6-2.4,11.67.09,4.77,2.7,8.32,7.24,9.72,2.65.82,5.32,1.59,8.01,2.27,10.36,2.59,19.45,7.39,26.78,15.28,3.39,3.65,7.44,4.36,11.73,1.84,6.09-3.58,11.26-8.18,14.67-14.48,7.72-14.22,12.47-29.24,12.18-44.29h0ZM336.33,2395.82c.07-9.37-1.4-18.15-4.35-26.69-2.04-5.9-8.04-10.02-14.97-7.22-7.56,3.06-15.24,5.81-22.81,8.86-1.9.77-3.62,2.05-5.32,3.23-1.87,1.29-2.86,3.17-3.37,5.39-.9,3.92-.19,7.61,1.47,11.16,4.24,9.1,9.73,17.24,18.02,23.21,4.38,3.16,8.8,6.25,13.81,8.32,5.23,2.16,10.42.55,13.36-4.31,1.19-1.96,2.04-4.24,2.58-6.48,1.23-5.18,1.65-10.47,1.59-15.47h0ZM303.91,2215.47c6.19-.03,10.46-.82,14.64-2,5.94-1.67,11.17-8.49,7.2-15.84-1.39-2.58-2.98-5.12-4.81-7.41-5.8-7.28-13.75-11.26-22.42-13.99-3.74-1.18-7.59-1.9-11.55-1.63-2.57.17-5.04.74-6.83,2.76-3.95,4.46-5.61,9.53-3.78,15.41.41,1.32.89,2.64,1.49,3.89,5.61,11.69,15.04,17.76,26.04,18.82h0ZM267.2,2340.96c.14,10.09,4.36,17.93,12.99,23.21,3.69,2.26,7.77,3.76,12.15,3.13,6.11-.89,12.16-2.27,17.66-5.19,6.19-3.29,9.47-11.22,5-18.31-1.79-2.85-4.22-5.08-6.96-6.97-8.1-5.63-17.08-8.82-26.93-9.58-2.68-.21-5.2.32-7.61,1.37-3.66,1.6-5.67,4.48-6.1,8.43-.14,1.3-.14,2.6-.2,3.91h0ZM342.13,2180.57c-.17-13.07-9.04-25.13-21.43-29.2-5.63-1.84-11.31-1.53-17-.54-4.42.77-8.45,2.56-12.23,4.96-2.89,1.83-5.03,4.26-6.09,7.55-.87,2.71-.28,4.61,2.18,6.01,1.94,1.1,4.06,1.94,6.16,2.72,5.87,2.15,11.75,4.28,17.21,7.36,5.06,2.86,10.07,5.8,15.13,8.68,1.36.77,2.76,1.46,4.16,2.15,5,2.51,10.97-.59,11.71-6.33.15-1.12.14-2.25.2-3.38h0ZM205.26,2262.8c0,2.17-.1,4.35.02,6.52.22,4.2.98,8.31,3.21,11.96,1.77,2.9,4.7,3.7,7.62,1.96,1.61-.96,3.23-2.17,4.36-3.64,2.23-2.87,4.24-5.92,6.13-9.04,4.39-7.24,7.04-15.01,7.49-23.57.52-10.09-1.91-19.28-7.4-27.69-.79-1.22-1.83-2.33-2.95-3.25-1.61-1.31-3.36-1.47-5.29-.3-2.1,1.26-3.13,3.18-4,5.29-5.49,13.39-8.73,27.27-9.17,41.77h0ZM433.76,2379.11c-1.88.29-3.86.29-5.61.93-4,1.45-7.86,3.25-11.37,5.74-6.29,4.47-10.47,10.64-13.78,17.41-1.87,3.84-2.78,8.06-3.08,12.33-.25,3.54,1.79,6,5.22,6.7,3.71.77,7.38.44,10.67-1.31,8.76-4.65,16.65-10.43,22.59-18.54,2.89-3.94,5.56-8,6.92-12.78,1.18-4.12.26-6.39-3.49-8.48-2.49-1.39-5.16-2.05-8.06-2h0ZM157.03,2254.22c-.48-6.99-2.12-13.61-4.97-19.94-1.3-2.89-3.02-5.46-5.77-7.22-4.19-2.69-8.37-2.11-11.6,1.69-4.61,5.42-5.98,11.85-5.6,18.73.28,5.23,1.43,10.31,3.11,15.27,1.79,5.29,4.64,9.86,9.08,13.39,1.88,1.49,3.89,1.73,6.13,1.25,3.03-.65,4.92-2.67,5.82-5.43,1.16-3.62,2.04-7.35,2.87-11.07.49-2.19.64-4.45.94-6.68h0ZM264.87,2344.14c-.2-2.33-.21-4.69-.64-6.97-.66-3.5-3.42-5.11-6.95-4.57-5.94.9-10.64,4.14-14.94,7.96-3.56,3.15-3.46,7.96.07,11.26,2.66,2.49,5.65,4.61,9.1,5.96.95.38,1.98.67,3,.75,3.77.3,7.22-1.89,8.98-5.47,1.4-2.85,1.43-5.86,1.39-8.92h0Z"/>
  <path class="cls-1" d="M398.02,718.82c-.17-7.34.95-15.02,2.36-22.68.83-4.49,1.11-8.95-.7-13.32-1.34-3.23-3.46-5.9-5.84-8.38-5.88-6.13-9.86-13.29-11.47-21.63-2.46-12.83,0-24.5,9.09-34.23,7.53-8.07,17.02-11.08,27.94-10.01,3.35.33,6.58.95,9.75,2.08,4.43,1.57,8.19,4.13,11.55,7.32,1.82,1.73,3.6,3.5,5.39,5.25,2.27,2.24,5.02,3.21,8.18,3.13,4.02-.11,7.99-.57,11.89-1.63,6.72-1.83,13.55-2.89,20.52-2.98,2.84-.04,5.67-.37,8.51-.35,8.22.05,16.33,1.12,24.31,3.02,5.12,1.22,10.12,1.02,15.08-.49,4.55-1.39,8.98-3.11,13.55-4.44,5.12-1.49,10.26-3.04,15.51-3.94,4.08-.69,8.34-.71,12.49-.48,4.9.27,9.8,1.01,14.66,1.75,4.72.71,9.28,2.15,13.64,4.09,11.21,5.02,21.17,11.84,29.07,21.33,7.09,8.52,11.73,18.3,13.41,29.28,2.58,16.87-1.3,32.2-11.61,45.84-6.68,8.84-15.54,14.77-25.51,19.3-4.66,2.12-9.56,3.49-14.45,4.89-2.39.69-4.43,1.88-6.34,3.41-5.19,4.19-8.84,9.56-11.68,15.48-3.62,7.55-7.71,14.84-12.29,21.82-4.9,7.47-11.23,13.7-18.16,19.29-13.29,10.72-28.44,17.2-45.42,18.9-24.2,2.43-45.88-4.34-64.84-19.39-19.58-15.54-31.35-35.97-36.49-60.32-1.49-7.06-2.2-14.21-2.12-21.91h0ZM487.53,818.58c18.77,0,32.29-3.31,44.52-9.99,14.48-7.92,23.28-20.36,27.48-36.04,2.16-8.04.46-15.6-5.27-21.98-4.3-4.78-9.38-8.58-14.98-11.63-10.12-5.52-19.06-12.42-25.92-21.75-10.35-14.1-14.4-29.79-11.34-47.13,1.41-8,4.57-15.35,8.79-22.26,1.84-3.01,3.54-6.06,4.14-9.6.76-4.49-1.12-8.67-5.17-10.72-1.92-.97-4-1.73-6.1-2.18-6.49-1.4-13.09-1.75-19.71-1.33-8.47.53-15.95,3.25-21.67,9.97-4.72,5.55-8.12,11.54-8.63,19.03-.39,5.81-1.96,11.38-4.98,16.42-4.74,7.94-11.26,13.59-20.61,15.41-1.39.27-2.78.53-4.18.75-5.01.77-9.07,3.16-12.24,7.12-2.17,2.7-3.78,5.71-5.05,8.91-2.5,6.27-3.73,12.82-4.25,19.52-.9,11.74.31,23.24,4.32,34.33,5.2,14.37,13.22,27,24.27,37.61,17.14,16.45,37.54,25.19,56.56,25.55h0ZM573.08,617.54c-2.38.19-6.14.35-9.86.84-5.34.7-10.11,2.86-14.12,6.49-5.49,4.99-6.2,11.79-1.73,17.76,1.54,2.05,3.39,3.91,5.33,5.61,11.99,10.5,20.17,23.54,25.55,38.4,3.88,10.72,6.03,21.7,4.6,33.19-.29,2.3-.19,4.68-.02,7,.33,4.37,3.26,8.16,6.92,9.25,3.25.97,6.53,1.14,9.88.51,12.26-2.29,22.75-8.06,30.96-17.24,11.52-12.86,16.39-28.23,14.27-45.44-1.83-14.83-8.63-27.31-19.73-37.29-14.37-12.93-31.5-18.76-52.06-19.08h0ZM580.78,712.22c.06-9.97-1.54-18.58-4.72-26.82-4.26-11.02-10.34-20.93-18.76-29.35-3.15-3.16-6.54-6.01-10.37-8.23-2.5-1.45-5.25-2.59-8.03-3.39-4.9-1.41-9.91-1.02-14.89-.13-4.48.8-8.14,3.01-10.91,6.56-3.47,4.44-6.07,9.39-7.71,14.8-2.86,9.46-2.36,19.03-.49,28.53,1.94,9.89,6.64,18.51,13.37,25.97,2.62,2.91,5.2,5.99,8.3,8.31,6.86,5.13,14.4,9.04,22.94,10.75,5.98,1.2,11.9,1.71,17.79-.37,2.57-.91,4.86-2.21,6.53-4.42,2.6-3.44,4.44-7.2,5.55-11.4,1.05-3.93,1.51-7.87,1.39-10.81h0ZM383.52,645c.1,7.93,2.68,16,7.82,23.23,1.57,2.21,3.44,4.08,5.82,5.42,5.91,3.32,8.91,1.98,12-2.91,2.5-3.95,5.01-7.9,7.31-11.96,2.92-5.15,6.71-9.52,11.02-13.54,3.85-3.59,7.49-7.39,11.19-11.14.7-.7,1.29-1.54,1.78-2.4,2.22-3.95,1.18-8.71-2.06-11.93-7.5-7.43-16.5-10.49-26.95-9.13-10.78,1.4-18.8,6.92-23.9,16.54-2.8,5.27-3.99,10.95-4.03,17.83h0ZM451.01,655.97c.03-3.47-.15-6.46-1.28-9.31-1.92-4.83-6.81-7-11.69-5.24-3.25,1.17-6.27,2.75-8.92,4.96-7.25,6.04-12.01,13.47-13.58,22.96-1.29,7.81,4.59,14.63,12.37,13.59,4.07-.54,7.97-1.92,11.27-4.51,7.42-5.83,10.86-13.72,11.83-22.45h0Z"/>
  <path class="cls-1" d="M76.04,188.55c12.74-13.36,29.49-21.67,49.75-22.39,15.91-.57,30.01,4.19,41.84,14.92,9.34,8.46,14.78,19.14,16.7,31.6.19,1.26.39,2.53.51,3.8.44,4.61,3.01,7.53,7.23,9.03,1.77.63,3.63,1.04,5.47,1.37,16.28,2.97,31,9.26,43.43,20.39,15.45,13.85,24.54,31.15,27.59,51.61.79,5.27,3.38,8.5,8.56,9.7,2.75.64,5.48,1.38,8.22,2.07,10.65,2.7,19.55,8.14,25.96,17.16,9.01,12.71,8.87,29.36-.1,42.16-12.25,17.48-35.02,25.1-56.34,18.81-4.02-1.18-8.04-1.55-12.16-.68-3.44.73-6.5,2.14-9.05,4.64-3.12,3.05-6.5,5.86-9.43,9.08-2.63,2.9-3.34,7.25-.27,11.3,1.73,2.3,3.23,4.77,4.74,7.23,2.56,4.18,6.21,5.66,10.94,4.19,1.63-.51,3.24-1.16,4.79-1.9,8.36-4.03,17.13-6.44,26.43-6.69,11.35-.3,22.21,1.63,32.1,7.53,6.38,3.8,11.49,9,15.77,15.02,4.81,6.77,8.43,8.14,16.54,6,6.35-1.67,12.76-3.14,19.37-2.78,12.92.71,23.38,5.84,29.1,18.01,4.59,9.79,3.14,19.54-1.91,28.78-8.75,16-27.43,25.2-45.47,22.53-2.56-.38-5.08-1.03-7.62-1.55-4.64-.96-8.71.27-11.98,3.57-4.96,4.99-9.57,10.36-14.63,15.24-6.29,6.06-13.79,10.12-22.29,12.36-16.8,4.43-32.71,2.32-47.57-6.64-10.62-6.4-17.98-15.67-22.61-27.14-1.06-2.62-2.25-5.18-3.44-7.74-1.01-2.16-2.74-3.69-4.91-4.52-1.21-.46-2.77-.73-3.98-.4-25.38,7.02-48.86,2.57-70.43-12.07-11.45-7.78-20.08-18.08-24.97-31.23-3.08-8.28-3.89-16.81-2.75-25.55.5-3.85,1-7.71,1.21-11.58.24-4.45-1.63-8.26-4.58-11.44-5.98-6.43-11.81-12.94-16.15-20.66-7.59-13.51-11.26-28.04-11.41-43.48-.15-14.77,3.07-28.83,8.82-42.38,1.05-2.48,1.87-5.11,2.51-7.73,1.11-4.61-.04-8.86-2.94-12.51-2.85-3.6-6.3-6.77-8.91-10.52-11.64-16.66-12.88-34.65-6.13-53.45,2.94-8.19,7.61-15.38,14.48-23.09h-.01ZM91.99,391.44c-.11.15-.21.29-.31.44,2.6,1.65,5.02,3.7,7.82,4.86,5.68,2.34,11.17.96,16.2-2.13,7.49-4.59,15.5-7.87,24.03-9.89,23.89-5.67,45.99-1.14,66.59,11.82,3.13,1.97,6.33,3.58,10.27,3.13,5.81-.66,9.93-4.03,13.69-8.08,2.39-2.57,3.14-5.67,2.67-9.1-.72-5.24-1.97-10.34-4.2-15.16-4.83-10.4-4.83-20.87-.04-31.23,5.26-11.37,14.35-18.62,25.73-23.38,2.3-.96,4.5-2.4,6.4-4.02,2.88-2.45,5.15-5.44,4.73-9.59-.19-1.87-.37-3.76-.79-5.59-4.55-19.58-13.78-36.14-30.72-47.8-8.8-6.05-18.35-10.13-29.01-11.19-9.12-.9-16.7,1.7-21.96,9.96-4.85,7.61-10.11,15-16.8,21.19-3.29,3.04-6.5,6.25-10.13,8.85-15.84,11.32-33.39,15.86-52.75,12.7-2.19-.36-4.41-.43-6.31.75-3.62,2.24-7.23,4.52-10.62,7.1-1.91,1.45-3.6,3.35-4.97,5.34-6.46,9.45-9.54,20.14-10.31,31.41-.96,14.02,1.69,27.46,7.55,40.3,3.31,7.25,7.19,14,13.24,19.33h0ZM226.55,526.68c.82.65,2.3,1.91,3.87,3.05,17.86,12.95,44.95,14.49,65.43-.96,5.43-4.1,10.03-8.88,13.66-14.7,3.26-5.22,4.76-10.61,3.11-16.67-.87-3.21-2.03-6.37-2.5-9.63-1.31-9.11.73-17.66,5.16-25.62,2.81-5.04,3.64-10.28,2.34-15.88-2.15-9.21-8.35-15.31-15.84-20.32-3.72-2.5-8.01-3.82-12.3-5.11-15.35-4.62-30.05-2.73-44.23,4.24-4.01,1.97-6.76,5.28-8.31,9.54-1.14,3.15-1.24,6.37-1.11,9.67.54,14.05-4.34,25.99-14.37,35.76-3.35,3.27-6.73,6.47-8.85,10.71-2.24,4.48-2.95,9.11-1.09,13.98,3.14,8.23,7.86,15.38,15.02,21.94h0ZM165.15,182.51c-11.33-9.94-24.96-14.29-40.03-13.67-19.05.79-35.05,8.72-47.91,22.67-9.81,10.64-15.72,23.23-16.65,37.8-.92,14.53,2.97,27.52,13.08,38.4,3.71,4,13.31,6.48,18.76,1.27,1.76-1.68,3.68-3.22,5.32-5.01,15.3-16.68,33.84-28.17,55.49-34.62,4.72-1.4,9.6-2.24,14.38-3.48,3.46-.9,6.85-2.03,9.04-5.17,3.61-5.17,4.47-10.85,2.58-16.79-2.65-8.32-7.46-15.31-14.06-21.39h0ZM122.69,475.33c13.69,12.04,33.8,19.44,52.87,19.16,4.63-.07,9.46-.21,13.83-1.53,9.34-2.82,15.11-9.47,16.91-19.11,2.47-13.27,8.1-24.91,16.96-35.06,1.4-1.6,2.61-3.5,3.38-5.47,2.07-5.33.94-10.28-2.23-14.95-3.52-5.2-9.44-7.66-15.57-6.13-2.2.55-4.37,1.25-6.51,2.02-5.43,1.95-10.73,4.31-16.25,5.91-22.28,6.46-44.36,6.18-66.01-2.8-3.3-1.37-6.53-1.36-9.72-.2-2.83,1.03-5.6,2.49-6.77,5.51-.87,2.25-1.55,4.65-1.82,7.05-.62,5.57.08,11.08,1.64,16.47,3.39,11.73,10.25,21.17,19.3,29.15h0ZM305.37,372.75c.69-.87,1.39-1.73,2.06-2.61,16.61-21.88,4.46-49.05-19.65-55.62-3.54-.96-7.01-.37-9.94,1.93-5.05,3.97-8.17,9.24-9.87,15.39-1.2,4.33-2.33,8.68-3.66,12.97-2.88,9.27-7.43,17.79-12.33,26.12-1.65,2.8-2.03,5.51-.09,8.4,3.55,5.27,8.89,7.74,14.76,8.27,15.21,1.37,28.04-4.06,38.7-14.85h0ZM373.1,496.26c6.16-6.88,9.44-12.95,10.58-20.07,2.22-13.89-5.48-26.35-18.94-30.44-9.85-3-19.4-1.76-28.71,2.38-2.46,1.1-4.23,2.84-5.41,5.18-1.48,2.99-2.15,6.13-1.56,9.51.43,2.45.73,4.94.89,7.43.48,7.15-.31,14.19-2.22,21.08-.72,2.59-1.08,5.16-.56,7.87,1.12,5.76,3.79,8.59,9.64,9.36,14.95,1.96,27.3-3.28,36.28-12.3h0ZM166.53,261.27c1.29-1.78,3.57-4.66,5.55-7.72,2.55-3.95,4.08-8.27,3.47-13.07-.81-6.33-4.37-9.43-10.72-9.51-5.96-.08-11.71,1.17-17.29,3.02-12.81,4.23-24.17,10.9-34.12,20.1-4.98,4.61-9.25,9.64-12.6,15.55-2.63,4.66-1.2,11.27,4.56,13.31,6.31,2.24,12.79,2.43,19.21,1.49,16.26-2.37,29.75-10.15,41.93-23.15h0ZM198.93,396.79c-1.38-.92-2.66-2.07-4.16-2.71-4.47-1.92-8.97-3.79-13.56-5.38-6.89-2.39-14.01-3.96-21.32-4.08-10.83-.19-21.14,2.06-30.72,7.29-4.08,2.23-8.03,4.58-10.33,8.84-1.78,3.29-2.48,6.65-.34,10.08,1.73,2.78,4.07,4.7,7.24,5.77,24.41,8.23,48.32,6.26,71.81-3.56,3.73-1.56,5.79-5.06,5.56-9.03-.17-3.08-2.2-5.1-4.18-7.22h0ZM237.98,327.34c-3.36,3.7-6.03,7.84-7.68,12.55-4.01,11.47-2.58,22.18,4.8,31.95,2.48,3.28,5.64,3.78,9.28,1.87,2.28-1.19,4.06-2.83,5.43-5,7.33-11.55,12.52-23.97,15.07-37.43.4-2.08.43-4.31.19-6.43-.63-5.61-4.55-8.47-10.14-7.59-6.99,1.1-12.33,4.98-16.96,10.08h0ZM220.7,477.01c8.63-9.71,12.55-19.85,12.45-31.55-.03-2.7-1.14-4.62-3.59-5.64-2.42-1-4.12.31-5.61,2.07-8.82,10.34-13.96,22.27-15.61,35.76-.26,2.13,1.07,3.02,2.53,3.84,1.47.82,3.06,1.51,4.62.15,2.09-1.82,4.14-3.68,5.21-4.64h0ZM315.98,494.74c3.58,2.75,7.46,1.72,8.74-2.46,2.7-8.88,3.54-17.93,2.1-27.13-.18-1.18-.58-2.39-1.14-3.44-1.16-2.2-3.26-2.73-5.12-1.12-1.35,1.16-2.45,2.71-3.36,4.26-4.71,8.01-6.4,16.49-3.42,25.53.51,1.53,1.45,2.92,2.2,4.38h0Z"/>
  <path class="cls-1" d="M377.13,1362.11c16.77,5.27,31.24,15.99,42.61,31.07,2.64,3.51,5.47,6.94,9.13,9.41,5.92,4.01,12.64,4.93,19.63,4.37,4.82-.39,9.61-.25,14.36.81,16.34,3.65,27.64,13.4,33.8,28.81,13,32.53-10.5,70.43-45.15,73.08-2.94.22-5.91.11-8.86.19-5.73.17-11.47.32-17.2.58-4.21.19-8.08,1.48-11.77,3.56-8.02,4.52-15.98,9.13-24.28,13.13-8.69,4.19-17.84,6.74-27.32,8.18-6.17.93-12.39,1.49-18.59,2.21-7.61.88-13.94,4.47-19.44,9.54-4.02,3.72-7.72,7.8-11.57,11.7-14.17,14.35-30.97,23.78-50.92,27.42-3.82.7-7.61,1.54-11.37,2.49-3.64.92-6.55,3.16-8.92,5.97-4.1,4.86-7.52,10.14-9.56,16.26-4.02,12.13-9.74,23.42-18.03,33.2-24.24,28.62-55.09,41.38-92.51,38.1-34.76-4.95-60.55-22.48-75.38-54.67-7.69-16.68-10.34-34.36-7.36-52.68,2.84-17.43,10.33-32.64,21.35-46.38,19.07-23.79,52.73-39.99,85.16-38.44,5.3.25,10.55,1.17,15.82,1.82,1.26.15,2.5.43,3.75.6,7.35,1,12.36-1.52,16.57-8.56,3.29-5.5,6.15-11.26,9.29-16.85,5.77-10.27,13.38-19.01,22.06-26.91,10.62-9.66,22.73-16.62,36.56-20.5,6.18-1.73,11.64-4.83,17.1-8.08,6.8-4.05,11.67-9.92,16.22-16.12,7.44-10.11,16.19-18.79,26.92-25.37,20.02-12.28,44.13-15.3,67.88-7.95h.02ZM44,1562.61c-1.07,5.2-2.48,10.36-3.15,15.62-2.56,20.08.73,39.02,11.52,56.41,6.92,11.13,15.85,20.31,26.47,27.94,12.95,9.3,27.2,15.26,43.15,16.77,16.2,1.53,31.81-1,46.81-7.24,8.3-3.46,15.93-8.15,23.19-13.43,9.3-6.77,16.47-15.44,21.85-25.57,5.02-9.46,7.83-19.58,8.15-30.29.22-7.24-1.85-13.82-6.54-19.48-3.4-4.11-7.23-7.78-11.31-11.21-4.41-3.71-8.42-7.8-11.87-12.42-7.16-9.6-11.45-20.4-13.54-32.15-1.83-10.29-7.52-17.93-16.61-22.98-7.25-4.04-15.11-6.37-23.33-7.06-10.74-.89-21.4-.25-31.74,3.3-8.09,2.79-15.85,6.29-23.24,10.56-6.07,3.5-11.79,7.5-16.69,12.62-10.64,11.12-18.19,24.04-23.12,38.63v-.02ZM375.05,1363.9c-1.93-.6-3.86-1.26-5.82-1.77-1.63-.42-3.3-.74-4.97-.98-26.72-3.72-49.75,3.89-69.01,22.73-2.39,2.33-4.42,5.12-6.2,7.95-2.63,4.2-4.19,8.85-4.14,13.9.06,6.75,2.79,11.88,9.04,14.88,1.6.76,3.19,1.54,4.81,2.27,9.01,4.01,16.76,9.82,23.23,17.19,10.93,12.45,17.05,27.08,18.4,43.59.44,5.46.26,10.96.36,16.45.11,6.52.62,12.97,2.88,19.19,1.19,3.27,3.35,5.71,6.46,7.12,2.76,1.25,5.62,2.32,8.54,3.14,5.08,1.42,10.32,2.23,15.5.86,12.39-3.28,23.33-9.3,32.76-18.01,1.65-1.52,2.73-3.39,3.42-5.53,1.51-4.67,1.66-9.24-.38-13.83-1.99-4.47-4.02-8.94-5.71-13.52-5.49-14.85-4.38-29.37,2.69-43.43,2.53-5.04,5.6-9.82,8.14-14.86,2.99-5.95,3.85-12.21,1.64-18.66-.82-2.39-1.7-4.76-2.7-7.08-3.71-8.67-9.44-15.77-17.1-21.21-6.65-4.72-13.98-8.18-21.85-10.39h.01ZM195.55,1467.3c-.37,1.21-.83,2.4-1.1,3.64-1.99,8.78-1.49,17.42,1.35,25.96,1.59,4.78,3.66,9.28,6.96,13.12,2.58,3.01,5.27,5.94,7.96,8.85,8.9,9.6,15.79,20.43,20.08,32.83,1.43,4.15,2.76,8.33,4.05,12.53.97,3.14,2.57,5.87,4.96,8.12,4.73,4.44,10.3,7.28,16.64,8.62,6.81,1.44,13.63,1.21,20.31-.62,8.35-2.28,15.7-6.6,22.26-12.18,6.65-5.66,11.95-12.34,14.75-20.79.82-2.48.97-4.97.44-7.49-1.56-7.48-4.93-13.87-10.67-19.11-6.29-5.76-12.09-11.98-17.06-18.98-10.09-14.21-16.42-29.82-18.17-47.21-.64-6.35-3.05-11.9-7.5-16.51-3.94-4.08-8.39-7.45-14.09-8.48-8.15-1.47-15.81.19-22.78,4.6-6.89,4.36-12.91,9.76-18.5,15.69-4.73,5.02-8.11,10.75-9.89,17.42h0ZM495.21,1472.35c3.89-13.33,3.72-25.03-1.18-36.44-5.16-12.02-13.71-20.3-26.69-23.53-8.67-2.15-16.79-1.1-24.13,4.15-3.25,2.32-5.49,5.44-6.07,9.56-.67,4.8-.37,9.6,0,14.4.85,11.06-.17,21.95-3.29,32.58-1.28,4.37-3.05,8.59-4.54,12.9-1.39,4-1.58,7.99.89,11.66,1.86,2.77,4.38,4.99,7.43,6.35,6.83,3.04,14.01,4.07,21.28,2.13,18.67-4.98,30.42-17.31,36.33-33.74h0ZM295.24,1425.1c-1.21-.37-2.4-.83-3.63-1.1-6.31-1.39-11.7.2-15.93,5.2-2.22,2.64-3.55,5.72-4.29,9.06-1.34,6.08-1.49,12.23-.73,18.37,2.36,19.01,9.98,35.64,22.9,49.79,6.42,7.04,13.78,12.93,22.35,17.17,6.74,3.35,14.74.67,18.1-6.04.86-1.72,1.47-3.6,1.96-5.47,2.06-7.81,2.83-15.77,2.54-23.83-.53-14.6-4.55-28.12-13.02-40.13-7.64-10.85-17.53-18.86-30.26-23.04h0ZM231.67,1570.3c.68-2.68.33-6.11-.53-9.49-5.42-21.38-17.14-38.49-35-51.38-1.36-.98-2.86-1.86-4.43-2.41-3.54-1.23-7.87-1.37-10.4,3.43-1.24,2.37-1.51,4.81-1.4,7.34.33,7.63,1.71,15.08,4.32,22.28,5.5,15.22,14.93,27.25,28.91,35.61,3.22,1.93,6.61,2.99,10.37,2.28,3.97-.74,6.77-2.91,8.17-7.66h0ZM431.44,1473.27c3.62-13.14,4.5-24.86,3.03-36.74-.38-3.07-1.27-5.92-3.01-8.5-2.82-4.2-5.95-5.23-10.64-3.45-3.5,1.33-6.35,3.58-8.41,6.65-8.04,11.96-11,25.08-8.38,39.28.99,5.38,3.28,10.23,7.05,14.35,3.93,4.31,11.45,4.45,14.7-.01,2.8-3.84,4.58-8.02,5.66-11.58h0Z"/>
</svg>